<?xml version="1.0" encoding="utf-8"?>
<!-- Generated by IcoMoon.io -->
<!DOCTYPE svg PUBLIC "-//W3C//DTD SVG 1.1//EN" "http://www.w3.org/Graphics/SVG/1.1/DTD/svg11.dtd">
<svg version="1.1" xmlns="http://www.w3.org/2000/svg" xmlns:xlink="http://www.w3.org/1999/xlink" width="24" height="24" viewBox="0 0 24 24">
<path d="M15.984 13.031v-2.016h-3v-3h-1.969v3h-3v2.016h3v3h1.969v-3h3zM18.891 16.828l2.109 2.109v1.078h-18v-1.078l2.109-2.109v-5.813c0-3.234 2.25-6 5.297-6.703v-0.703c0-0.891 0.703-1.594 1.594-1.594s1.594 0.703 1.594 1.594v0.703c3.047 0.703 5.297 3.469 5.297 6.703v5.813zM10.031 21h3.938c0 1.078-0.891 2.016-1.969 2.016s-1.969-0.938-1.969-2.016z"></path>
</svg>
