<?xml version="1.0" encoding="utf-8"?>
<!-- Generated by IcoMoon.io -->
<!DOCTYPE svg PUBLIC "-//W3C//DTD SVG 1.1//EN" "http://www.w3.org/Graphics/SVG/1.1/DTD/svg11.dtd">
<svg version="1.1" xmlns="http://www.w3.org/2000/svg" xmlns:xlink="http://www.w3.org/1999/xlink" width="24" height="24" viewBox="0 0 24 24">
<path d="M5.109 5.016h13.781l-0.938-1.031h-12zM12 17.484l5.484-5.484h-3.469v-2.016h-4.031v2.016h-3.469zM20.531 5.25c0.281 0.328 0.469 0.797 0.469 1.266v12.469c0 1.078-0.938 2.016-2.016 2.016h-13.969c-1.078 0-2.016-0.938-2.016-2.016v-12.469c0-0.469 0.188-0.938 0.469-1.266l1.359-1.688c0.281-0.328 0.703-0.563 1.172-0.563h12c0.469 0 0.891 0.234 1.172 0.563z"></path>
</svg>
