<?xml version="1.0" encoding="utf-8"?>
<!-- Generated by IcoMoon.io -->
<!DOCTYPE svg PUBLIC "-//W3C//DTD SVG 1.1//EN" "http://www.w3.org/Graphics/SVG/1.1/DTD/svg11.dtd">
<svg version="1.1" xmlns="http://www.w3.org/2000/svg" xmlns:xlink="http://www.w3.org/1999/xlink" width="24" height="24" viewBox="0 0 24 24">
<path d="M12 5.016c0.563 0 0.984-0.469 0.984-1.031s-0.422-0.984-0.984-0.984-0.984 0.422-0.984 0.984 0.422 1.031 0.984 1.031zM12.984 14.016v-6h-1.969v6h1.969zM12.984 18v-2.016h-1.969v2.016h1.969zM18.984 3c1.078 0 2.016 0.938 2.016 2.016v13.969c0 1.078-0.938 2.016-2.016 2.016h-13.969c-1.078 0-2.016-0.938-2.016-2.016v-13.969c0-1.078 0.938-2.016 2.016-2.016h4.172c0.422-1.172 1.5-2.016 2.813-2.016s2.391 0.844 2.813 2.016h4.172z"></path>
</svg>
