<?xml version="1.0" encoding="utf-8"?>
<!-- Generated by IcoMoon.io -->
<!DOCTYPE svg PUBLIC "-//W3C//DTD SVG 1.1//EN" "http://www.w3.org/Graphics/SVG/1.1/DTD/svg11.dtd">
<svg version="1.1" xmlns="http://www.w3.org/2000/svg" xmlns:xlink="http://www.w3.org/1999/xlink" width="24" height="24" viewBox="0 0 24 24">
<path d="M16.5 6h1.5v11.484c0 3.047-2.438 5.531-5.484 5.531s-5.531-2.484-5.531-5.531v-12.469c0-2.203 1.828-4.031 4.031-4.031s3.984 1.828 3.984 4.031v10.5c0 1.359-1.125 2.484-2.484 2.484s-2.531-1.125-2.531-2.484v-9.516h1.5v9.516c0 0.563 0.469 0.984 1.031 0.984s0.984-0.422 0.984-0.984v-10.5c0-1.359-1.125-2.531-2.484-2.531s-2.531 1.172-2.531 2.531v12.469c0 2.203 1.828 4.031 4.031 4.031s3.984-1.828 3.984-4.031v-11.484z"></path>
</svg>
