<?xml version="1.0" encoding="utf-8"?>
<!-- Generated by IcoMoon.io -->
<!DOCTYPE svg PUBLIC "-//W3C//DTD SVG 1.1//EN" "http://www.w3.org/Graphics/SVG/1.1/DTD/svg11.dtd">
<svg version="1.1" xmlns="http://www.w3.org/2000/svg" xmlns:xlink="http://www.w3.org/1999/xlink" width="24" height="24" viewBox="0 0 24 24">
<path d="M12 20.016c4.406 0 8.016-3.609 8.016-8.016 0-1.828-0.609-3.563-1.688-4.922l-11.25 11.25c1.359 1.078 3.094 1.688 4.922 1.688zM3.984 12c0 1.828 0.609 3.563 1.688 4.922l11.25-11.25c-1.359-1.078-3.094-1.688-4.922-1.688-4.406 0-8.016 3.609-8.016 8.016zM12 2.016c5.531 0 9.984 4.453 9.984 9.984s-4.453 9.984-9.984 9.984-9.984-4.453-9.984-9.984 4.453-9.984 9.984-9.984z"></path>
</svg>
