<?xml version="1.0" encoding="utf-8"?>
<!-- Generated by IcoMoon.io -->
<!DOCTYPE svg PUBLIC "-//W3C//DTD SVG 1.1//EN" "http://www.w3.org/Graphics/SVG/1.1/DTD/svg11.dtd">
<svg version="1.1" xmlns="http://www.w3.org/2000/svg" xmlns:xlink="http://www.w3.org/1999/xlink" width="24" height="24" viewBox="0 0 24 24">
<path d="M16.5 15.984c1.359 0 2.484-1.125 2.484-2.484s-1.125-2.484-2.484-2.484h-0.516c0-2.203-1.781-4.031-3.984-4.031-1.875 0-3.422 1.313-3.844 3.047l-0.141-0.047c-1.641 0-3 1.359-3 3s1.359 3 3 3h8.484zM12 2.016c5.531 0 9.984 4.453 9.984 9.984s-4.453 9.984-9.984 9.984-9.984-4.453-9.984-9.984 4.453-9.984 9.984-9.984z"></path>
</svg>
