<?xml version="1.0" encoding="utf-8"?>
<!-- Generated by IcoMoon.io -->
<!DOCTYPE svg PUBLIC "-//W3C//DTD SVG 1.1//EN" "http://www.w3.org/Graphics/SVG/1.1/DTD/svg11.dtd">
<svg version="1.1" xmlns="http://www.w3.org/2000/svg" xmlns:xlink="http://www.w3.org/1999/xlink" width="24" height="24" viewBox="0 0 24 24">
<path d="M8.016 18l3.984-6.984h-2.016v-5.016l-3.984 7.5h2.016v4.5zM18 9.984c0.563 0 0.984-0.422 0.984-0.984s-0.422-0.984-0.984-0.984-0.984 0.422-0.984 0.984 0.422 0.984 0.984 0.984zM19.781 7.219c0.469 0.469 0.703 1.078 0.703 1.781v9.516c0 1.359-1.125 2.484-2.484 2.484s-2.484-1.125-2.484-2.484v-5.016h-1.5v7.5h-10.031v-15.984c0-1.078 0.938-2.016 2.016-2.016h6c1.078 0 2.016 0.938 2.016 2.016v6.984h0.984c1.078 0 2.016 0.938 2.016 2.016v4.5c0 0.563 0.422 0.984 0.984 0.984s0.984-0.422 0.984-0.984v-7.219c-0.328 0.141-0.609 0.188-0.984 0.188-1.359 0-2.484-1.125-2.484-2.484 0-1.078 0.656-1.969 1.594-2.344l-2.109-2.109 1.078-1.031z"></path>
</svg>
