<?xml version="1.0" encoding="utf-8"?>
<!-- Generated by IcoMoon.io -->
<!DOCTYPE svg PUBLIC "-//W3C//DTD SVG 1.1//EN" "http://www.w3.org/Graphics/SVG/1.1/DTD/svg11.dtd">
<svg version="1.1" xmlns="http://www.w3.org/2000/svg" xmlns:xlink="http://www.w3.org/1999/xlink" width="24" height="24" viewBox="0 0 24 24">
<path d="M6.984 21v-2.016h2.016v2.016h-2.016zM11.016 21v-2.016h1.969v2.016h-1.969zM18.984 15v-9.984h-9.984v9.984h9.984zM18.984 3c1.078 0 2.016 0.938 2.016 2.016v9.984c0 1.078-0.938 2.016-2.016 2.016h-9.984c-1.125 0-2.016-0.938-2.016-2.016v-9.984c0-1.078 0.891-2.016 2.016-2.016h9.984zM15 21v-2.016h2.016v2.016h-2.016zM3 9v-2.016h2.016v2.016h-2.016zM5.016 21c-1.125 0-2.016-0.938-2.016-2.016h2.016v2.016zM3 17.016v-2.016h2.016v2.016h-2.016zM3 12.984v-1.969h2.016v1.969h-2.016z"></path>
</svg>
