<?xml version="1.0" encoding="utf-8"?>
<!-- Generated by IcoMoon.io -->
<!DOCTYPE svg PUBLIC "-//W3C//DTD SVG 1.1//EN" "http://www.w3.org/Graphics/SVG/1.1/DTD/svg11.dtd">
<svg version="1.1" xmlns="http://www.w3.org/2000/svg" xmlns:xlink="http://www.w3.org/1999/xlink" width="24" height="24" viewBox="0 0 24 24">
<path d="M18.984 17.016v-1.031c0-1.313-2.672-1.969-3.984-1.969s-3.984 0.656-3.984 1.969v1.031h7.969zM15 9c-1.078 0-2.016 0.938-2.016 2.016s0.938 1.969 2.016 1.969 2.016-0.891 2.016-1.969-0.938-2.016-2.016-2.016zM20.016 6c1.078 0 1.969 0.938 1.969 2.016v9.984c0 1.078-0.891 2.016-1.969 2.016h-16.031c-1.078 0-1.969-0.938-1.969-2.016v-12c0-1.078 0.891-2.016 1.969-2.016h6l2.016 2.016h8.016z"></path>
</svg>
