<?xml version="1.0" encoding="utf-8"?>
<!-- Generated by IcoMoon.io -->
<!DOCTYPE svg PUBLIC "-//W3C//DTD SVG 1.1//EN" "http://www.w3.org/Graphics/SVG/1.1/DTD/svg11.dtd">
<svg version="1.1" xmlns="http://www.w3.org/2000/svg" xmlns:xlink="http://www.w3.org/1999/xlink" width="24" height="24" viewBox="0 0 24 24">
<path d="M18.984 11.016v-6h-13.969v6h1.969v1.969h2.016v2.016h2.016v-2.016h1.969v2.016h2.016v-2.016h2.016v-1.969h1.969zM17.016 18v-2.016h-2.016v2.016h2.016zM12.984 18v-2.016h-1.969v2.016h1.969zM9 18v-2.016h-2.016v2.016h2.016zM18.984 3c1.078 0 2.016 0.938 2.016 2.016v13.969c0 1.078-0.938 2.016-2.016 2.016h-13.969c-1.078 0-2.016-0.938-2.016-2.016v-13.969c0-1.078 0.938-2.016 2.016-2.016h13.969zM6.984 9h2.016v2.016h-2.016v-2.016zM15 9h2.016v2.016h-2.016v-2.016zM11.016 9h1.969v2.016h2.016v1.969h-2.016v-1.969h-1.969v1.969h-2.016v-1.969h2.016v-2.016zM17.016 12.984v2.016h1.969v-2.016h-1.969zM6.984 12.984h-1.969v2.016h1.969v-2.016z"></path>
</svg>
