<?xml version="1.0" encoding="utf-8"?>
<!-- Generated by IcoMoon.io -->
<!DOCTYPE svg PUBLIC "-//W3C//DTD SVG 1.1//EN" "http://www.w3.org/Graphics/SVG/1.1/DTD/svg11.dtd">
<svg version="1.1" xmlns="http://www.w3.org/2000/svg" xmlns:xlink="http://www.w3.org/1999/xlink" width="24" height="24" viewBox="0 0 24 24">
<path d="M9.984 3.984c1.078 0 2.016 0.938 2.016 2.016s-0.938 2.016-2.016 2.016-1.969-0.938-1.969-2.016 0.891-2.016 1.969-2.016zM14.016 8.016c1.078 0 1.969 0.891 1.969 1.969s-0.891 2.016-1.969 2.016-2.016-0.938-2.016-2.016 0.938-1.969 2.016-1.969zM18 12c1.078 0 2.016 0.938 2.016 2.016s-0.938 1.969-2.016 1.969-2.016-0.891-2.016-1.969 0.938-2.016 2.016-2.016zM14.016 15.984c1.078 0 1.969 0.938 1.969 2.016s-0.891 2.016-1.969 2.016-2.016-0.938-2.016-2.016 0.938-2.016 2.016-2.016zM18 8.016c-1.078 0-2.016-0.938-2.016-2.016s0.938-2.016 2.016-2.016 2.016 0.938 2.016 2.016-0.938 2.016-2.016 2.016zM6 15.984c1.078 0 2.016 0.938 2.016 2.016s-0.938 2.016-2.016 2.016-2.016-0.938-2.016-2.016 0.938-2.016 2.016-2.016zM6 8.016c1.078 0 2.016 0.891 2.016 1.969s-0.938 2.016-2.016 2.016-2.016-0.938-2.016-2.016 0.938-1.969 2.016-1.969zM9.984 12c1.078 0 2.016 0.938 2.016 2.016s-0.938 1.969-2.016 1.969-1.969-0.891-1.969-1.969 0.891-2.016 1.969-2.016z"></path>
</svg>
