<?xml version="1.0" encoding="utf-8"?>
<!-- Generated by IcoMoon.io -->
<!DOCTYPE svg PUBLIC "-//W3C//DTD SVG 1.1//EN" "http://www.w3.org/Graphics/SVG/1.1/DTD/svg11.dtd">
<svg version="1.1" xmlns="http://www.w3.org/2000/svg" xmlns:xlink="http://www.w3.org/1999/xlink" width="24" height="24" viewBox="0 0 24 24">
<path d="M17.016 15.984c2.203 0 3.984-1.781 3.984-3.984s-1.781-3.984-3.984-3.984-4.031 1.781-4.031 3.984 1.828 3.984 4.031 3.984zM17.016 6c3.328 0 6 2.672 6 6s-2.672 6-6 6-6-2.672-6-6 2.672-6 6-6zM5.016 8.016c2.203 0 3.984 1.781 3.984 3.984s-1.781 3.984-3.984 3.984-4.031-1.781-4.031-3.984 1.828-3.984 4.031-3.984z"></path>
</svg>
