<?xml version="1.0" encoding="utf-8"?>
<!-- Generated by IcoMoon.io -->
<!DOCTYPE svg PUBLIC "-//W3C//DTD SVG 1.1//EN" "http://www.w3.org/Graphics/SVG/1.1/DTD/svg11.dtd">
<svg version="1.1" xmlns="http://www.w3.org/2000/svg" xmlns:xlink="http://www.w3.org/1999/xlink" width="24" height="24" viewBox="0 0 24 24">
<path d="M12 15c1.078 0 2.016-0.938 2.016-2.016s-0.938-1.969-2.016-1.969-2.016 0.891-2.016 1.969 0.938 2.016 2.016 2.016zM6.984 6.984c0 1.078 0.938 2.016 2.016 2.016s2.016-0.938 2.016-2.016-0.938-1.969-2.016-1.969-2.016 0.891-2.016 1.969zM12 2.016c3.563 0 6.797 1.547 9 3.984l-9 15.984-9-15.984c2.203-2.438 5.438-3.984 9-3.984z"></path>
</svg>
