<?xml version="1.0" encoding="utf-8"?>
<!-- Generated by IcoMoon.io -->
<!DOCTYPE svg PUBLIC "-//W3C//DTD SVG 1.1//EN" "http://www.w3.org/Graphics/SVG/1.1/DTD/svg11.dtd">
<svg version="1.1" xmlns="http://www.w3.org/2000/svg" xmlns:xlink="http://www.w3.org/1999/xlink" width="24" height="24" viewBox="0 0 24 24">
<path d="M14.484 9.797v-1.781h-4.969v1.781h2.766l-2.766 3.422v1.781h4.969v-1.781h-2.766zM18 15.984l2.016 2.016v0.984h-16.031v-0.984l2.016-2.016v-4.969c0-3.047 1.641-5.625 4.5-6.328v-0.703c0-0.844 0.656-1.5 1.5-1.5s1.5 0.656 1.5 1.5v0.703c2.859 0.703 4.5 3.281 4.5 6.328v4.969zM12 21.984c-1.125 0-2.016-0.891-2.016-1.969h4.031c0 1.078-0.938 1.969-2.016 1.969z"></path>
</svg>
