<?xml version="1.0" encoding="utf-8"?>
<!-- Generated by IcoMoon.io -->
<!DOCTYPE svg PUBLIC "-//W3C//DTD SVG 1.1//EN" "http://www.w3.org/Graphics/SVG/1.1/DTD/svg11.dtd">
<svg version="1.1" xmlns="http://www.w3.org/2000/svg" xmlns:xlink="http://www.w3.org/1999/xlink" width="24" height="24" viewBox="0 0 24 24">
<path d="M18.984 3c1.078 0 2.016 0.938 2.016 2.016v6h-5.016l1.031-4.031-4.031 1.031v-5.016h6zM17.016 17.016l-1.031-4.031h5.016v6c0 1.078-0.938 2.016-2.016 2.016h-6v-5.016zM8.016 12.984l-1.031 4.031 4.031-1.031v5.016h-6c-1.078 0-2.016-0.938-2.016-2.016v-6h5.016zM3 5.016c0-1.078 0.938-2.016 2.016-2.016h6v5.016l-4.031-1.031 1.031 4.031h-5.016v-6z"></path>
</svg>
