<?xml version="1.0" encoding="utf-8"?>
<!-- Generated by IcoMoon.io -->
<!DOCTYPE svg PUBLIC "-//W3C//DTD SVG 1.1//EN" "http://www.w3.org/Graphics/SVG/1.1/DTD/svg11.dtd">
<svg version="1.1" xmlns="http://www.w3.org/2000/svg" xmlns:xlink="http://www.w3.org/1999/xlink" width="24" height="24" viewBox="0 0 24 24">
<path d="M13.266 10.734l2.719 1.266-2.719 1.266-1.266 2.719-1.266-2.719-2.719-1.266 2.719-1.266 1.266-2.719zM17.016 9.984l-0.938-2.063-2.063-0.938 2.063-0.938 0.938-2.063 0.938 2.063 2.063 0.938-2.063 0.938zM19.031 9.984h1.969v9c0 1.078-0.891 2.016-1.969 2.016h-14.016c-1.078 0-2.016-0.938-2.016-2.016v-13.969c0-1.078 0.938-2.016 2.016-2.016h9v2.016h-9v13.969h14.016v-9z"></path>
</svg>
