<?xml version="1.0" encoding="utf-8"?>
<!-- Generated by IcoMoon.io -->
<!DOCTYPE svg PUBLIC "-//W3C//DTD SVG 1.1//EN" "http://www.w3.org/Graphics/SVG/1.1/DTD/svg11.dtd">
<svg version="1.1" xmlns="http://www.w3.org/2000/svg" xmlns:xlink="http://www.w3.org/1999/xlink" width="24" height="24" viewBox="0 0 24 24">
<path d="M24 18l-4.5 4.5-1.5-1.5 3-3-3-3 1.5-1.5zM12.984 9.984h3v2.016h-3v3h-1.969v-3h-3v-2.016h3v-3h1.969v3zM21 3c1.078 0 2.016 0.891 2.016 2.016v7.969h-2.016v-7.969h-18v12h15v1.969h-2.016v2.016h-7.969v-2.016h-5.016c-1.125 0-2.016-0.891-2.016-1.969v-12c0-1.125 0.891-2.016 2.016-2.016h18z"></path>
</svg>
