<?xml version="1.0" encoding="utf-8"?>
<!-- Generated by IcoMoon.io -->
<!DOCTYPE svg PUBLIC "-//W3C//DTD SVG 1.1//EN" "http://www.w3.org/Graphics/SVG/1.1/DTD/svg11.dtd">
<svg version="1.1" xmlns="http://www.w3.org/2000/svg" xmlns:xlink="http://www.w3.org/1999/xlink" width="24" height="24" viewBox="0 0 24 24">
<path d="M18 16.078c1.594 0 2.906 1.313 2.906 2.906s-1.313 2.953-2.906 2.953-2.906-1.359-2.906-2.953c0-0.234 0-0.469 0.047-0.656l-7.078-4.125c-0.563 0.516-1.266 0.797-2.063 0.797-1.641 0-3-1.359-3-3s1.359-3 3-3c0.797 0 1.5 0.281 2.063 0.797l7.031-4.078c-0.047-0.234-0.094-0.469-0.094-0.703 0-1.641 1.359-3 3-3s3 1.359 3 3-1.359 3-3 3c-0.797 0-1.5-0.328-2.063-0.844l-7.031 4.125c0.047 0.234 0.094 0.469 0.094 0.703s-0.047 0.469-0.094 0.703l7.125 4.125c0.516-0.469 1.219-0.75 1.969-0.75z"></path>
</svg>
