<?xml version="1.0" encoding="utf-8"?>
<!-- Generated by IcoMoon.io -->
<!DOCTYPE svg PUBLIC "-//W3C//DTD SVG 1.1//EN" "http://www.w3.org/Graphics/SVG/1.1/DTD/svg11.dtd">
<svg version="1.1" xmlns="http://www.w3.org/2000/svg" xmlns:xlink="http://www.w3.org/1999/xlink" width="24" height="24" viewBox="0 0 24 24">
<path d="M9 12.984c0.656 0 1.5 0.094 2.391 0.281-2.063 1.125-2.391 2.625-2.391 3.469v2.25h-6.984v-2.484c0-2.344 4.641-3.516 6.984-3.516zM16.5 14.016c1.828 0 5.484 0.891 5.484 2.719v2.25h-10.969v-2.25c0-1.828 3.656-2.719 5.484-2.719zM9 11.016c-1.641 0-3-1.359-3-3s1.359-3 3-3 3 1.359 3 3-1.359 3-3 3zM16.5 12c-1.359 0-2.484-1.125-2.484-2.484s1.125-2.531 2.484-2.531 2.484 1.172 2.484 2.531-1.125 2.484-2.484 2.484z"></path>
</svg>
