<?xml version="1.0" encoding="utf-8"?>
<!-- Generated by IcoMoon.io -->
<!DOCTYPE svg PUBLIC "-//W3C//DTD SVG 1.1//EN" "http://www.w3.org/Graphics/SVG/1.1/DTD/svg11.dtd">
<svg version="1.1" xmlns="http://www.w3.org/2000/svg" xmlns:xlink="http://www.w3.org/1999/xlink" width="24" height="24" viewBox="0 0 24 24">
<path d="M18 3.984l3.984 4.031h-3v6.984c0 2.203-1.781 3.984-3.984 3.984s-3.984-1.781-3.984-3.984v-6.984c0-1.078-0.938-2.016-2.016-2.016s-2.016 0.938-2.016 2.016v6.984h3l-3.984 3.984-3.984-3.984h3v-6.984c0-2.203 1.781-4.031 3.984-4.031s3.984 1.828 3.984 4.031v6.984c0 1.078 0.938 2.016 2.016 2.016s2.016-0.938 2.016-2.016v-6.984h-3z"></path>
</svg>
