<?xml version="1.0" encoding="utf-8"?>
<!-- Generated by IcoMoon.io -->
<!DOCTYPE svg PUBLIC "-//W3C//DTD SVG 1.1//EN" "http://www.w3.org/Graphics/SVG/1.1/DTD/svg11.dtd">
<svg version="1.1" xmlns="http://www.w3.org/2000/svg" xmlns:xlink="http://www.w3.org/1999/xlink" width="24" height="24" viewBox="0 0 24 24">
<path d="M20.016 3c0.563 0 0.984 0.422 0.984 0.984v6c0 0.563-0.422 1.031-0.984 1.031h-17.016c-0.563 0-0.984-0.469-0.984-1.031v-6c0-0.563 0.422-0.984 0.984-0.984h17.016zM20.016 12.984c0.563 0 0.984 0.469 0.984 1.031v6c0 0.563-0.422 0.984-0.984 0.984h-17.016c-0.563 0-0.984-0.422-0.984-0.984v-6c0-0.563 0.422-1.031 0.984-1.031h17.016z"></path>
</svg>
