<svg style="position: absolute; width: 0; height: 0; overflow: hidden;" version="1.1" xmlns="http://www.w3.org/2000/svg" xmlns:xlink="http://www.w3.org/1999/xlink">
<defs>
<symbol id="icon-chat" viewBox="0 0 32 32">
<title>chat</title>
<path class="path1" d="M23.996 12v-4c0-5.523-3.996-8-7.996-8h-8.004c-3.996 0-7.996 2.125-7.996 8 0 5.75 4 8 7.996 8h0.93c-0.558 1.083-0.915 2.37-0.926 3.932v4.146c0.042 4.381 3.608 7.922 8 7.922 0-2.211 1.793-4 4-4h3.996c4.004 0 8.004-2.25 8.004-8 0-5.875-4-8-8.004-8zM7.996 12c-3.996 0-3.996-3.012-3.996-4 0-1.199 0-4 3.996-4h8.004c1.496 0 4 0.52 4 4v4c0 1.307-0.629 2.471-1.609 3.201-1.461-1.943-3.782-3.201-6.391-3.201h-4.004zM23.996 24h-3.996c-2.613 0-4.938 1.258-6.398 3.199-0.973-0.73-1.602-1.894-1.602-3.199v-4c0-1.83 0.91-2.941 1.816-3.512 1.282 0.668 2.184 1.969 2.184 3.512 2.956 0 5.506-1.62 6.894-4.002l1.102 0.002c4.004 0 4.004 2.803 4.004 4 0 0.99 0 4-4.004 4z"></path>
</symbol>
<symbol id="icon-chat-alt-stroke" viewBox="0 0 32 32">
<title>chat-alt-stroke</title>
<path class="path1" d="M25.977 12.213c-0.027 1.387-0.336 2.695-0.883 3.889 2.883 0.48 2.906 2.828 2.906 3.898 0 0.992 0 4-3.996 4h-4.004c-2.605 0-4.938 1.258-6.398 3.203-0.969-0.734-1.602-1.898-1.602-3.203v-4c0-0.789 0.141-1.414 0.359-1.928-0.117-0.021-0.234-0.072-0.359-0.072h-3.797c-0.129 0.619-0.199 1.281-0.199 2v4c0 4.418 3.578 8 7.996 8 0-2.211 1.789-4 4-4h4.004c3.996 0 7.996-2.25 7.996-8 0-4.893-2.781-7.16-6.023-7.787zM16 4c1.492 0 4 0.52 4 4v4c0 1.309-0.633 2.471-1.602 3.201-1.46-1.941-3.789-3.201-6.398-3.201h-3.996c-4.004 0-4.004-3.010-4.004-4 0-1.195 0-4 4.004-4h7.996zM16 0h-7.996c-4.004 0-8.004 2.125-8.004 8 0 5.75 4 8 8.004 8h3.996c2.211 0 4 1.793 4 4 4.418 0 8.004-3.582 8.004-8v-4c0-5.521-4.004-8-8.004-8v0z"></path>
</symbol>
<symbol id="icon-chat-alt-fill" viewBox="0 0 32 32">
<title>chat-alt-fill</title>
<path class="path1" d="M16 20c4.418 0 7.996-3.582 7.996-8v-4c0-5.521-3.996-8-7.996-8h-8.004c-3.996 0-7.996 2.125-7.996 8 0 5.75 4 8 7.996 8h4.004c2.207 0 4 1.793 4 4zM25.98 12.213c-0.117 5.412-4.542 9.787-9.98 9.787h-2v-2c0-1.104-0.898-2-2-2h-3.801c-0.12 0.597-0.194 1.236-0.199 1.926v4.151c0.042 4.382 3.608 7.923 8 7.923 0-2.211 1.793-4 4-4h3.996c4.004 0 8.004-2.25 8.004-8 0-4.893-2.785-7.16-6.020-7.787z"></path>
</symbol>
<symbol id="icon-comment-alt1-stroke" viewBox="0 0 32 32">
<title>comment-alt1-stroke</title>
<path class="path1" d="M16.002 8c11.072 0 11.998 4.129 11.998 8 0 1.344-0.355 2.805-0.746 4h-13.25c-4.703 0-6.738 0.195-9 1.758-0.938-2.57-1.539-6.047-0.379-8.84 1.351-3.262 5.179-4.918 11.377-4.918zM16.002 4c-22.371 0-15.991 20-11.996 24 4-4 4-4 9.996-4h15.935c0 0 2.063-4 2.063-8 0-10-7.997-12-15.998-12v0z"></path>
</symbol>
<symbol id="icon-comment" viewBox="0 0 32 32">
<title>comment</title>
<path class="path1" d="M29.938 24c0 0 2.063-4 2.063-8-0.001-10-7.998-12-15.999-12-22.371 0-15.991 20-11.996 24 4-4 4-4 9.996-4h15.936z"></path>
</symbol>
<symbol id="icon-comment-stroke" viewBox="0 0 32 32">
<title>comment-stroke</title>
<path class="path1" d="M20 6c4.414 0 8 3.586 8 8s-3.586 8-8 8h-8c-2.609 0-4.934 1.258-6.395 3.203-0.972-0.734-1.605-1.898-1.605-3.203v-10c0-3.309 2.695-6 6-6h10zM20 2h-10c-5.523 0-10 4.477-10 10v10c0 4.418 3.586 8 8 8 0-2.211 1.793-4 4-4h8c6.629 0 12-5.375 12-12s-5.371-12-12-12v0z"></path>
</symbol>
<symbol id="icon-comment-fill" viewBox="0 0 32 32">
<title>comment-fill</title>
<path class="path1" d="M0 22c0 4.418 3.586 8 8 8 0-2.211 1.793-4 4-4h8c6.629 0 12-5.375 12-12s-5.371-12-12-12h-10c-5.523 0-10 4.477-10 10v10z"></path>
</symbol>
<symbol id="icon-comment-alt2-stroke" viewBox="0 0 28 32">
<title>comment-alt2-stroke</title>
<path class="path1" d="M14 0c-7.73 0-14 6.27-14 14 0 3.832 1.547 7.297 4.043 9.828l0.023 8.172 6.637-4.434c1.063 0.262 2.156 0.434 3.297 0.434 7.73 0 14-6.27 14-14s-6.27-14-14-14zM14 24c-0.707 0-1.473-0.105-2.34-0.316l-1.703-0.422-1.918 1.27 0.012-2.336-1.16-1.176c-1.864-1.891-2.891-4.383-2.891-7.020 0-5.516 4.484-10 10-10s10 4.484 10 10c0 5.516-4.484 10-10 10z"></path>
</symbol>
<symbol id="icon-comment-alt2-fill" viewBox="0 0 28 32">
<title>comment-alt2-fill</title>
<path class="path1" d="M14 0c-7.73 0-14 6.27-14 14 0 3.832 1.547 7.297 4.043 9.828l-0.043 8.172 6.703-4.434c1.063 0.262 2.156 0.434 3.297 0.434 7.73 0 14-6.27 14-14s-6.27-14-14-14z"></path>
</symbol>
<symbol id="icon-checkmark" viewBox="0 0 32 32">
<title>checkmark</title>
<path class="path1" d="M6 12l-6 6 12 12 20-20-6-6-14 14z"></path>
</symbol>
<symbol id="icon-check-alt" viewBox="0 0 32 32">
<title>check-alt</title>
<path class="path1" d="M16 0c-8.836 0-16 7.164-16 16s7.164 16 16 16 16-7.164 16-16-7.164-16-16-16zM13.52 23.383l-7.362-7.363 2.828-2.828 4.533 4.535 9.617-9.617 2.828 2.828-12.444 12.445z"></path>
</symbol>
<symbol id="icon-x" viewBox="0 0 32 32">
<title>x</title>
<path class="path1" d="M30 24.398l-8.406-8.398 8.406-8.398-5.602-5.602-8.398 8.402-8.402-8.402-5.598 5.602 8.398 8.398-8.398 8.398 5.598 5.602 8.402-8.402 8.398 8.402z"></path>
</symbol>
<symbol id="icon-x-altx-alt" viewBox="0 0 32 32">
<title>x-altx-alt</title>
<path class="path1" d="M16 0c-8.836 0-16 7.164-16 16s7.164 16 16 16 16-7.164 16-16-7.164-16-16-16zM23.914 21.086l-2.828 2.828-5.086-5.086-5.086 5.086-2.828-2.828 5.086-5.086-5.086-5.086 2.828-2.828 5.086 5.086 5.086-5.086 2.828 2.828-5.086 5.086 5.086 5.086z"></path>
</symbol>
<symbol id="icon-denied" viewBox="0 0 32 32">
<title>denied</title>
<path class="path1" d="M16 0c-8.836 0-16 7.164-16 16s7.164 16 16 16 16-7.164 16-16-7.164-16-16-16zM16 4c2.59 0 4.973 0.844 6.934 2.242l-16.696 16.688c-1.398-1.961-2.238-4.344-2.238-6.93 0-6.617 5.383-12 12-12zM16 28c-2.59 0-4.973-0.844-6.934-2.242l16.696-16.688c1.398 1.961 2.238 4.344 2.238 6.93 0 6.617-5.383 12-12 12z"></path>
</symbol>
<symbol id="icon-cursor" viewBox="0 0 32 32">
<title>cursor</title>
<path class="path1" d="M32 28l-14-14 6-6-24-8 8 23.996 6-6 14 14.004z"></path>
</symbol>
<symbol id="icon-rss" viewBox="0 0 32 32">
<title>rss</title>
<path class="path1" d="M0 28c0-2.209 1.791-4 4-4s4 1.791 4 4c0 2.209-1.791 4-4 4s-4-1.791-4-4zM6 0v4c12.148 0 22 9.851 22 22h4c0-14.358-11.643-26-26-26zM6.023 8.008c-0.008 0-0.015 0.001-0.023 0.001v4c0.008 0 0.015-0.001 0.023-0.001 7.729 0 13.996 6.265 14 13.992h4c-0.004-9.937-8.062-17.992-18-17.992zM6.023 16.008c-0.008 0-0.015 0.001-0.023 0.001v4c0.008 0 0.015-0.001 0.023-0.001 3.311 0 5.996 2.683 6 5.992h4c-0.004-5.519-4.48-9.992-10-9.992z"></path>
</symbol>
<symbol id="icon-rss-alt" viewBox="0 0 32 32">
<title>rss-alt</title>
<path class="path1" d="M32 32h-4.57c0-15.125-12.305-27.428-27.43-27.428v-4.572c17.641 0 32 14.355 32 32v0zM22.855 32h-4.57c0-10.082-8.207-18.285-18.285-18.285v-4.572c12.602 0 22.855 10.255 22.855 22.857v0zM13.715 32h-4.574c0-5.043-4.098-9.141-9.141-9.141v-4.574c7.562 0 13.715 6.153 13.715 13.715v0zM4.57 32c0-2.523-2.043-4.57-4.57-4.57v4.57h4.57z"></path>
</symbol>
<symbol id="icon-wrench" viewBox="0 0 32 32">
<title>wrench</title>
<path class="path1" d="M31.607 5.643l-5.023 5.023h-5.25v-5.332l4.961-4.959c-0.734-0.221-1.492-0.375-2.297-0.375-4.416 0-7.998 3.584-7.998 8 0 1.232 0.301 2.385 0.801 3.43l-16.020 16.015c-0.48 0.485-0.781 1.149-0.781 1.891 0 1.469 1.191 2.664 2.668 2.664 0.738 0 1.406-0.297 1.883-0.781l16.023-16.018c1.041 0.496 2.197 0.799 3.424 0.799 4.422 0 8-3.584 8-8 0-0.826-0.156-1.607-0.391-2.357z"></path>
</symbol>
<symbol id="icon-dial" viewBox="0 0 32 32">
<title>dial</title>
<path class="path1" d="M12.065 16c-0-0.005-0-0.010-0-0.016 0-2.221 1.801-4.022 4.022-4.022 2.204 0 3.994 1.774 4.021 3.972 0 0.071 0 0.076 0 0.082 0 2.221-1.801 4.022-4.022 4.022-2.204 0-3.995-1.774-4.021-3.972zM28.709 6.026c-0.346 0.284-0.766 0.475-1.249 0.475-1.108 0-2.011-0.901-2.011-2.022 0-0.489 0.196-0.924 0.487-1.28-2.231-1.729-4.933-2.894-7.878-3.263-0.103 1.020-0.927 1.825-1.972 1.825s-1.881-0.814-1.972-1.848c-2.985 0.387-5.703 1.573-7.953 3.364 0.255 0.34 0.436 0.742 0.436 1.2 0 1.121-0.896 2.022-2.011 2.022-0.447 0-0.849-0.174-1.182-0.427-2.101 2.733-3.405 6.12-3.405 9.841 0 8.931 7.203 16.173 16.086 16.173s16.086-7.242 16.086-16.173c0-3.756-1.319-7.159-3.464-9.887zM16.086 23.957c-4.442 0-8.043-3.601-8.043-8.043 0-2.223 0.9-4.23 2.357-5.687l5.687-5.687 5.678 5.678c1.462 1.457 2.365 3.472 2.365 5.695 0 4.446-3.601 8.043-8.043 8.043z"></path>
</symbol>
<symbol id="icon-cog" viewBox="0 0 32 32">
<title>cog</title>
<path class="path1" d="M32 17.969v-4l-4.781-1.992c-0.133-0.375-0.273-0.738-0.445-1.094l1.93-4.805-2.829-2.828-4.762 1.961c-0.363-0.176-0.734-0.324-1.117-0.461l-2.027-4.75h-4l-1.977 4.734c-0.398 0.141-0.781 0.289-1.16 0.469l-4.754-1.91-2.828 2.828 1.938 4.711c-0.188 0.387-0.34 0.781-0.485 1.188l-4.703 2.011v4l4.707 1.961c0.145 0.406 0.301 0.801 0.488 1.188l-1.902 4.742 2.828 2.828 4.723-1.945c0.379 0.18 0.766 0.324 1.164 0.461l2.023 4.734h4l1.98-4.758c0.379-0.141 0.754-0.289 1.113-0.461l4.797 1.922 2.828-2.828-1.969-4.773c0.168-0.359 0.305-0.723 0.438-1.094l4.782-2.039zM15.969 22c-3.312 0-6-2.688-6-6s2.688-6 6-6 6 2.688 6 6-2.688 6-6 6z"></path>
</symbol>
<symbol id="icon-calendar" viewBox="0 0 32 32">
<title>calendar</title>
<path class="path1" d="M24 4v-4h-4v4h-8v-4h-4v4h-8v4h32v-4zM4 20h24v4h-24zM4 12h24v4h-24zM4 32h20l4-4h-24z"></path>
</symbol>
<symbol id="icon-calendar-alt-stroke" viewBox="0 0 32 32">
<title>calendar-alt-stroke</title>
<path class="path1" d="M32 32h-32v-28h4v24h24v-24h4zM6 12h4v4h-4zM14 12h4v4h-4zM22 12h4v4h-4zM6 20h4v4h-4zM14 20h4v4h-4zM22 24v-4h4zM8 6v-4c0-1.105 0.895-2 2-2s2 0.895 2 2v4c0 1.105-0.895 2-2 2s-2-0.895-2-2zM20 6v-4c0-1.105 0.895-2 2-2s2 0.895 2 2v4c0 1.105-0.895 2-2 2s-2-0.895-2-2z"></path>
</symbol>
<symbol id="icon-calendar-alt-fill" viewBox="0 0 32 32">
<title>calendar-alt-fill</title>
<path class="path1" d="M26 4v2.047c0 2.211-1.789 4-4 4s-4-1.789-4-4v-2.047h-4v2.047c0 2.211-1.789 4-4 4s-4-1.789-4-4v-2.047h-6v28h32v-28h-6zM10 28h-4v-4h4v4zM10 20h-4v-4h4v4zM18 28h-4v-4h4v4zM18 20h-4v-4h4v4zM22 28v-4h4l-4 4zM26 20h-4v-4h4v4zM8 6v-4c0-1.105 0.895-2 2-2s2 0.895 2 2v4c0 1.105-0.895 2-2 2s-2-0.895-2-2zM20 6v-4c0-1.105 0.895-2 2-2s2 0.895 2 2v4c0 1.105-0.895 2-2 2s-2-0.895-2-2z"></path>
</symbol>
<symbol id="icon-share" viewBox="0 0 32 32">
<title>share</title>
<path class="path1" d="M27.998 24c-0.969 0-1.828 0.391-2.523 0.965l-6.096-4.352c0.387-0.797 0.621-1.672 0.621-2.613 0-1.293-0.422-2.488-1.117-3.465l7.131-7.137c0.593 0.348 1.25 0.602 1.984 0.602 2.211 0 4-1.789 4-4s-1.789-4-4-4-4 1.789-4 4c0 0.738 0.258 1.391 0.602 1.984l-7.131 7.137c-0.985-0.703-2.172-1.121-3.469-1.121-2.289 0-4.258 1.301-5.27 3.191l-4.816-1.609c-0.195-0.898-0.957-1.582-1.914-1.582-1.105 0-2 0.895-2 2s0.895 2 2 2c0.504 0 0.953-0.203 1.305-0.512l4.789 1.598c-0.047 0.301-0.094 0.602-0.094 0.914 0 3.312 2.688 6 6 6 1.648 0 3.145-0.668 4.23-1.746l6.057 4.324c-0.172 0.445-0.289 0.918-0.289 1.422 0 2.207 1.789 4 4 4s4-1.793 4-4-1.789-4-4-4z"></path>
</symbol>
<symbol id="icon-mail" viewBox="0 0 32 32">
<title>mail</title>
<path class="path1" d="M15.996 15.457l16.004-7.539v-3.918h-32v3.906zM16.004 19.879l-16.004-7.559v15.68h32v-15.656z"></path>
</symbol>
<symbol id="icon-heart-stroke" viewBox="0 0 32 32">
<title>heart-stroke</title>
<path class="path1" d="M23.113 6c2.457 0 4.492 1.82 4.836 4.188l-11.945 13.718-11.953-13.718c0.344-2.368 2.379-4.188 4.836-4.188 2.016 0 3.855 2.164 3.855 2.164l3.258 3.461 3.258-3.461c0 0 1.84-2.164 3.855-2.164zM23.113 2c-2.984 0-5.5 1.578-7.113 3.844-1.613-2.266-4.129-3.844-7.113-3.844-4.903 0-8.887 3.992-8.887 8.891v0.734l16.008 18.375 15.992-18.375v-0.734c0-4.899-3.984-8.891-8.887-8.891v0z"></path>
</symbol>
<symbol id="icon-heart-fill" viewBox="0 0 32 32">
<title>heart-fill</title>
<path class="path1" d="M16 5.844c-1.613-2.266-4.129-3.844-7.113-3.844-4.903 0-8.887 3.992-8.887 8.891v0.734l16.008 18.375 15.992-18.375v-0.734c0-4.899-3.984-8.891-8.887-8.891-2.984 0-5.5 1.578-7.113 3.844z"></path>
</symbol>
<symbol id="icon-movie" viewBox="0 0 32 32">
<title>movie</title>
<path class="path1" d="M27.977 8h-3.949l3.972-3.984-3.926-4.016h-5.566l3.988 3.984-4.086 4.016h-4.723l4.059-3.984-4.012-4.016h-5.656l3.984 3.984-4.085 4.016h-4.008l4.062-3.984-4.015-4.016h-4.016v32h32v-32h-3.922l3.922 4-4.023 4zM28 28h-24v-4h24v4zM28 20h-24v-4h24v4z"></path>
</symbol>
<symbol id="icon-document-alt-stroke" viewBox="0 0 24 32">
<title>document-alt-stroke</title>
<path class="path1" d="M14 0h-14v32h24v-22.002l-10-9.998zM4 28v-24h8v8h8v16h-16z"></path>
</symbol>
<symbol id="icon-document-alt-fill" viewBox="0 0 24 32">
<title>document-alt-fill</title>
<path class="path1" d="M14 0h-14v32h24v-22.002l-10-9.998zM11.918 12v-8l8 8h-8z"></path>
</symbol>
<symbol id="icon-document-stroke" viewBox="0 0 32 32">
<title>document-stroke</title>
<path class="path1" d="M22.016 0h-22.016v31.938l8.051-6.578 8.019 6.64 8.012-6.633 7.918 6.617v-21.984l-9.984-10zM28.020 23.938l-3.953-3.227-7.996 6.617-7.98-6.609-4.086 3.219c0 0 0-17.359 0-20 2.102 0 7.809 0 12.008 0v12h12.007c0 2.73 0 8 0 8zM20.016 11.938c0-1.543 0-5.914 0-8 1.617 1.617 6.402 6.398 8.004 8-2.047 0-6.45 0-8.004 0z"></path>
</symbol>
<symbol id="icon-document-fill" viewBox="0 0 32 32">
<title>document-fill</title>
<path class="path1" d="M21.609 0h-21.609v32l7.977-6.641 8.015 6.641 8.004-6.633 8.004 6.633v-21.699l-10.391-10.301zM18 14v-10l10 10h-10z"></path>
</symbol>
<symbol id="icon-plus" viewBox="0 0 32 32">
<title>plus</title>
<path class="path1" d="M32 12h-12v-12h-8v12h-12v8h12v12h8v-12h12z"></path>
</symbol>
<symbol id="icon-plus-alt" viewBox="0 0 32 32">
<title>plus-alt</title>
<path class="path1" d="M16 0c-8.836 0-16 7.164-16 16s7.164 16 16 16 16-7.164 16-16-7.164-16-16-16zM24 18h-6v6h-4v-6h-6v-4h6v-6h4v6h6v4z"></path>
</symbol>
<symbol id="icon-minus" viewBox="0 0 32 32">
<title>minus</title>
<path class="path1" d="M0 12h32v8h-32z"></path>
</symbol>
<symbol id="icon-minus-alt" viewBox="0 0 32 32">
<title>minus-alt</title>
<path class="path1" d="M16 0c-8.836 0-16 7.164-16 16s7.164 16 16 16 16-7.164 16-16-7.164-16-16-16zM24 18h-16v-4h16v4z"></path>
</symbol>
<symbol id="icon-pin" viewBox="0 0 32 32">
<title>pin</title>
<path class="path1" d="M32 8c0-4.416-3.586-8-8-8-2.984 0-5.562 1.658-6.938 4.086 0-0.002 0.004-0.004 0.004-0.006-0.367-0.035-0.723-0.111-1.098-0.111-6.629 0-12 5.371-12 12 0 2.527 0.789 4.867 2.121 6.797l-6.089 9.234 9.289-6.062c1.91 1.281 4.207 2.031 6.68 2.031 6.629 0 12-5.371 12-12 0-0.346-0.070-0.67-0.102-1.008 2.453-1.367 4.133-3.955 4.133-6.961zM15.969 23.969c-4.414 0-8-3.586-8-8 0-4.412 3.586-8 8-8 0.012 0 0.023 0.004 0.031 0.004 0-0.008 0.004-0.014 0.004-0.020 0 0.016-0.004 0.031-0.004 0.047 0 0.695 0.117 1.355 0.281 1.998l-3.172 3.174c-1.562 1.562-1.562 4.094 0 5.656s4.094 1.562 5.656 0l3.141-3.141c0.66 0.18 1.344 0.305 2.059 0.309-0.016 4.402-3.594 7.973-7.996 7.973zM24 12c-2.203 0-4-1.795-4-4s1.797-4 4-4 4 1.795 4 4-1.797 4-4 4z"></path>
</symbol>
<symbol id="icon-link" viewBox="0 0 32 32">
<title>link</title>
<path class="path1" d="M31.414 0.586c-0.781-0.781-2.059-0.781-2.84 0l-4.070 4.074c-1.668-1.109-3.582-1.66-5.504-1.66-2.559 0-5.117 0.977-7.070 2.93l-6 6c-3.422 3.418-3.844 8.703-1.273 12.582l-4.070 4.074c-0.781 0.781-0.781 2.047 0 2.828 0.39 0.391 0.901 0.586 1.413 0.586s1.023-0.195 1.414-0.586l4.070-4.074c1.668 1.109 3.594 1.66 5.516 1.66 2.559 0 5.117-0.977 7.070-2.93l5.988-6c3.422-3.418 3.844-8.703 1.273-12.582l4.082-4.074c0.782-0.781 0.782-2.047 0.001-2.828zM24.988 13c0 1.602-0.625 3.109-1.758 4.242l-5.988 6c-1.133 1.133-2.64 1.758-4.242 1.758-0.906 0-1.773-0.223-2.57-0.602l2.984-2.984c0.781-0.781 0.781-2.047 0-2.828s-2.047-0.781-2.828 0l-2.984 2.984c-0.383-0.793-0.602-1.66-0.602-2.57 0-1.602 0.625-3.109 1.758-4.242l6-6c1.133-1.133 2.64-1.758 4.242-1.758 0.906 0 1.77 0.223 2.566 0.602l-3.043 3.047c-0.781 0.781-0.781 2.047 0 2.828 0.391 0.391 0.902 0.586 1.414 0.586 0.508 0 1.020-0.195 1.41-0.586l3.039-3.047c0.384 0.793 0.602 1.66 0.602 2.57z"></path>
</symbol>
<symbol id="icon-bolt" viewBox="0 0 32 32">
<title>bolt</title>
<path class="path1" d="M32 0l-24 16 6 4-14 12 24-12-6-4z"></path>
</symbol>
<symbol id="icon-move" viewBox="0 0 32 32">
<title>move</title>
<path class="path1" d="M18 20v6h4l-6 6-6-6h4v-6zM14 12v-6h-4l6-6 6 6h-4v6zM12 18h-6v4l-6-6 6-6v4h6zM20 14h6v-4l6 6-6 6v-4h-6z"></path>
</symbol>
<symbol id="icon-move-alt1" viewBox="0 0 32 32">
<title>move-alt1</title>
<path class="path1" d="M16 22l2-2v6h4l-6 6-6-6h4v-6zM16 10.062l-2 1.938v-6h-4l6-6 6 6h-4v6zM10 16l2 2h-6v4l-6-6 6-6v4h6zM21.938 16l-1.938-2h6v-4l6 6-6 6v-4h-6z"></path>
</symbol>
<symbol id="icon-move-alt2" viewBox="0 0 32 32">
<title>move-alt2</title>
<path class="path1" d="M16 0c-8.836 0-16 7.164-16 16s7.164 16 16 16 16-7.164 16-16-7.164-16-16-16zM22 20v-2h-4v4h2l-4 4-4-4h2v-4h-4v2l-4-4 4-4v2h4v-4h-2l4-4 4 4h-2v4h4v-2l4 4-4 4z"></path>
</symbol>
<symbol id="icon-equalizer" viewBox="0 0 32 32">
<title>equalizer</title>
<path class="path1" d="M18 2c0-1.1-0.9-2-2-2s-2 0.9-2 2v18h-2v4h2v6c0 1.1 0.9 2 2 2s2-0.9 2-2v-6h2v-4h-2v-18zM6 2c0-1.1-0.9-2-2-2s-2 0.9-2 2v10h-2v4h2v14c0 1.1 0.9 2 2 2s2-0.9 2-2v-14h2v-4h-2v-10zM32 8h-2v-6c0-1.1-0.9-2-2-2s-2 0.9-2 2v6h-2v4h2v18c0 1.1 0.9 2 2 2s2-0.9 2-2v-18h2v-4z"></path>
</symbol>
<symbol id="icon-award-fill" viewBox="0 0 16 32">
<title>award-fill</title>
<path class="path1" d="M8 20c-1.41 0-2.742-0.289-4-0.736v12.736l4-4 4 4v-12.736c-1.258 0.447-2.59 0.736-4 0.736zM0 8c0-4.418 3.582-8 8-8s8 3.582 8 8c0 4.418-3.582 8-8 8s-8-3.582-8-8z"></path>
</symbol>
<symbol id="icon-award-stroke" viewBox="0 0 16 32">
<title>award-stroke</title>
<path class="path1" d="M8 20c-1.41 0-2.742-0.289-4-0.734v12.734l4-4 4 4v-12.734c-1.258 0.445-2.59 0.734-4 0.734zM8 0c-4.418 0-8 3.582-8 8s3.582 8 8 8 8-3.582 8-8-3.582-8-8-8zM8 12c-2.211 0-4-1.791-4-4s1.789-4 4-4 4 1.791 4 4-1.789 4-4 4z"></path>
</symbol>
<symbol id="icon-magnifying-glass" viewBox="0 0 32 32">
<title>magnifying-glass</title>
<path class="path1" d="M20.133 0c-6.539 0-11.86 5.32-11.86 11.863 0 1.566 0.32 3.051 0.871 4.418l-9.144 9.145 6.57 6.574 9.148-9.152c1.367 0.555 2.852 0.875 4.414 0.875 6.543 0 11.867-5.32 11.867-11.858 0.001-6.545-5.323-11.865-11.866-11.865zM20.133 19.727c-4.332 0-7.863-3.531-7.863-7.862 0-4.336 3.531-7.867 7.863-7.867 4.34 0 7.871 3.531 7.871 7.867 0 4.33-3.531 7.862-7.871 7.862z"></path>
</symbol>
<symbol id="icon-trash-stroke" viewBox="0 0 32 32">
<title>trash-stroke</title>
<path class="path1" d="M32 4h-8c0-2.211-1.789-4-4-4h-8c-2.211 0-4 1.789-4 4h-8v4h4v18c0 3.312 2.688 6 6 6h12c3.312 0 6-2.688 6-6v-18h4v-4zM24 26c0 1.102-0.898 2-2 2h-12c-1.102 0-2-0.898-2-2v-18h16v18zM10 22c0-1.105 0.895-2 2-2s2 0.895 2 2c0 1.105-0.895 2-2 2s-2-0.895-2-2zM10 14c0-1.105 0.895-2 2-2s2 0.895 2 2c0 1.105-0.895 2-2 2s-2-0.895-2-2zM18 22c0-1.105 0.895-2 2-2s2 0.895 2 2c0 1.105-0.895 2-2 2s-2-0.895-2-2zM18 14c0-1.105 0.895-2 2-2s2 0.895 2 2c0 1.105-0.895 2-2 2s-2-0.895-2-2z"></path>
</symbol>
<symbol id="icon-trash-fill" viewBox="0 0 32 32">
<title>trash-fill</title>
<path class="path1" d="M28 4h-4c0-2.211-1.789-4-4-4h-8c-2.211 0-4 1.789-4 4h-8v4h4v18c0 3.312 2.688 6 6 6h12c3.312 0 6-2.688 6-6v-18h4v-4h-4zM12 24c-1.105 0-2-0.895-2-2s0.895-2 2-2 2 0.895 2 2-0.895 2-2 2zM12 16c-1.105 0-2-0.895-2-2s0.895-2 2-2 2 0.895 2 2-0.895 2-2 2zM20 24c-1.105 0-2-0.895-2-2s0.895-2 2-2 2 0.895 2 2-0.895 2-2 2zM20 16c-1.105 0-2-0.895-2-2s0.895-2 2-2 2 0.895 2 2-0.895 2-2 2z"></path>
</symbol>
<symbol id="icon-beaker-alt" viewBox="0 0 16 32">
<title>beaker-alt</title>
<path class="path1" d="M8 9c0-0.552 0.448-1 1-1s1 0.448 1 1c0 0.552-0.448 1-1 1s-1-0.448-1-1zM14 0h-12c-1.105 0-2 0.895-2 2v22c0 4.418 3.582 8 8 8s8-3.582 8-8v-22c0-1.105-0.895-2-2-2zM5 20c-0.552 0-1-0.447-1-1s0.448-1 1-1c0.553 0 1 0.447 1 1s-0.447 1-1 1zM10 24c-1.105 0-2-0.895-2-2s0.895-2 2-2 2 0.895 2 2-0.895 2-2 2zM12 16h-2c0-1.104-0.896-2-2-2s-2 0.896-2 2h-2v-12h8v12z"></path>
</symbol>
<symbol id="icon-beaker" viewBox="0 0 16 32">
<title>beaker</title>
<path class="path1" d="M14 0h-12c-1.105 0-2 0.895-2 2v22c0 4.418 3.582 8 8 8s8-3.582 8-8v-22c0-1.105-0.895-2-2-2zM10 24c-1.105 0-2-0.895-2-2s0.895-2 2-2 2 0.895 2 2-0.895 2-2 2zM12 16h-2c0-1.104-0.896-2-2-2s-2 0.896-2 2h-2v-12h8v12z"></path>
</symbol>
<symbol id="icon-key-stroke" viewBox="0 0 32 32">
<title>key-stroke</title>
<path class="path1" d="M22 0c-5.523 0-10 4.477-10 10 0 0.625 0.074 1.227 0.184 1.816l-12.184 12.184v8h12v-4h4v-4h4v-4l0.184-0.184c0.589 0.11 1.191 0.184 1.816 0.184 5.523 0 10-4.477 10-10s-4.477-10-10-10zM22 16c-0.313 0-0.656-0.039-1.086-0.117l-2.070-0.383-2.844 2.844v1.656h-4v4h-4v4h-4v-2.344l12.5-12.5-0.383-2.070c-0.080-0.43-0.117-0.774-0.117-1.086 0-3.309 2.691-6 6-6s6 2.691 6 6-2.691 6-6 6zM20 10c0-1.105 0.895-2 2-2s2 0.895 2 2c0 1.105-0.895 2-2 2s-2-0.895-2-2z"></path>
</symbol>
<symbol id="icon-key-fill" viewBox="0 0 32 32">
<title>key-fill</title>
<path class="path1" d="M22 0c-5.523 0-10 4.477-10 10 0 0.625 0.074 1.227 0.184 1.816l-12.184 12.184v8h12v-4h4v-4h4v-4l0.184-0.184c0.589 0.11 1.191 0.184 1.816 0.184 5.523 0 10-4.477 10-10s-4.477-10-10-10zM22.008 12c-1.105 0-2-0.895-2-2s0.895-2 2-2 2 0.895 2 2-0.895 2-2 2z"></path>
</symbol>
<symbol id="icon-new-window" viewBox="0 0 32 32">
<title>new-window</title>
<path class="path1" d="M32 0h-24v8c-2.906 0-8 0-8 0v24h24v-8h8v-24zM20 28h-16v-12h4v8h12c0 1.789 0 4 0 4zM28 20h-16v-12h16v12z"></path>
</symbol>
<symbol id="icon-lightbulb" viewBox="0 0 20 32">
<title>lightbulb</title>
<path class="path1" d="M10 4.008c3.311 0 6 2.699 6 6.016 0 1.895-0.863 3.637-2.373 4.773-2.258 1.707-3.17 3.594-3.484 5.18h-0.286c-0.313-1.586-1.228-3.473-3.484-5.18-1.508-1.137-2.375-2.879-2.375-4.773 0-3.317 2.691-6.016 6.002-6.016zM10 0c-5.523 0-10 4.488-10 10.023 0 3.282 1.545 6.149 3.969 7.977 1.115 0.844 2.035 1.93 2.035 3.43v2.555h7.994v-2.555c0-1.5 0.92-2.586 2.033-3.43 2.426-1.828 3.969-4.695 3.969-7.977 0-5.535-4.477-10.023-10-10.023v0zM6 28h8v4h-8z"></path>
</symbol>
<symbol id="icon-spin-alt" viewBox="0 0 32 32">
<title>spin-alt</title>
<path class="path1" d="M4.691 27.32c-3.027-3.023-4.691-7.039-4.691-11.32 0-8.82 7.176-16 16-16l2 2-2 2c-6.617 0-12 5.383-12 12 0 3.211 1.25 6.227 3.52 8.492l-2.457 0.32-0.372 2.508zM16 32l-2-1.992 2-2.008c6.617 0 12-5.383 12-12 0-3.203-1.25-6.219-3.523-8.488l2.461-0.324 0.367-2.504c3.027 3.023 4.695 7.043 4.695 11.316 0 8.82-7.18 16-16 16v0z"></path>
</symbol>
<symbol id="icon-spin" viewBox="0 0 28 32">
<title>spin</title>
<path class="path1" d="M23.883 6.086l-2.82 2.832c1.89 1.891 2.937 4.406 2.937 7.082 0 5.516-4.484 10-10 10v-2l-4 4 4 4v-2c7.719 0 14-6.281 14-14 0-3.746-1.461-7.266-4.117-9.914zM18 4l-4-4v2c-7.719 0-14 6.281-14 14 0 3.746 1.461 7.266 4.117 9.914l2.82-2.832c-1.89-1.891-2.937-4.406-2.937-7.082 0-5.516 4.484-10 10-10v2l4-4z"></path>
</symbol>
<symbol id="icon-curved-arrow" viewBox="0 0 32 32">
<title>curved-arrow</title>
<path class="path1" d="M28 18c0-7.73-6.27-14-14-14s-14 6.27-14 14c0-5.523 4.477-10 10-10s10 4.477 10 10v2h-4l8 8 8-8h-4v-2z"></path>
</symbol>
<symbol id="icon-undo" viewBox="0 0 32 32">
<title>undo</title>
<path class="path1" d="M28.154 3.72c-4.957-4.956-13.604-4.96-18.558 0l-5.597 5.601v-5.32h-4v11.999h11.999v-4l-5.023 0.003 5.453-5.453c3.445-3.449 9.452-3.449 12.897 0.004 1.723 1.723 2.672 4.012 2.672 6.449 0 2.44-0.949 4.73-2.672 6.458l-3.016 3.015 2.828 2.827 3.016-3.008c2.477-2.485 3.844-5.783 3.844-9.291 0-3.507-1.367-6.804-3.844-9.283zM18.448 32l-2.828-2.832 2.83-2.827 2.828 2.832z"></path>
</symbol>
<symbol id="icon-reload" viewBox="0 0 32 32">
<title>reload</title>
<path class="path1" d="M24 18c0 4.41-3.586 8-8 8s-8-3.59-8-8 3.586-8 8-8l2.359 0.027-1.164 1.164 2.828 2.828 6.012-6.019-6.012-6-2.828 2.828 1.18 1.172h-2.375c-6.625 0-12 5.371-12 12s5.375 12 12 12 12-5.371 12-12h-4z"></path>
</symbol>
<symbol id="icon-reload-alt" viewBox="0 0 32 32">
<title>reload-alt</title>
<path class="path1" d="M24 18c0 4.414-3.586 8-8 8s-8-3.586-8-8 3.586-8 8-8h4l0.023 4.020 6.012-6.020-6.012-6v4h-4.023c-6.625 0-12 5.375-12 12s5.375 12 12 12 12-5.375 12-12h-4z"></path>
</symbol>
<symbol id="icon-loop" viewBox="0 0 32 32">
<title>loop</title>
<path class="path1" d="M20 16v4h4.738l-5.371 5.371c-3.389 3.396-9.309 3.396-12.701 0l-2.83 2.824c2.451 2.454 5.715 3.805 9.184 3.805 3.471 0 6.727-1.352 9.175-3.805l5.805-5.8v5.605h4v-12h-12zM12 12h-4.738l5.371-5.371c3.389-3.396 9.309-3.396 12.701 0l2.83-2.824c-2.451-2.453-5.715-3.805-9.185-3.805s-6.727 1.352-9.175 3.805l-5.804 5.8v-5.605h-4v12h12v-4z"></path>
</symbol>
<symbol id="icon-loop-alt1" viewBox="0 0 32 32">
<title>loop-alt1</title>
<path class="path1" d="M12 10h-4v-0.016c0-1.102 0.898-1.984 2-1.984h12c1.102 0 2 0.898 2 2v2h4v-2c0-3.309-2.691-6-6-6h-12c-3.309 0-6 2.691-6 6h-4l6 6 6-6zM26 16l-6 6h4v0.016c0 1.101-0.898 1.984-2 1.984h-12c-1.102 0-2-0.898-2-2v-2h-4v2c0 3.309 2.691 6 6 6h12c3.309 0 6-2.691 6-6h4l-6-6z"></path>
</symbol>
<symbol id="icon-loop-alt2" viewBox="0 0 32 32">
<title>loop-alt2</title>
<path class="path1" d="M12 10h-4v-2c0-1.102 0.898-2 2-2h12c1.102 0 2 0.898 2 2v2h4v-2c0-3.309-2.691-6-6-6h-12c-3.309 0-6 2.691-6 6v2h-4l6 8 6-8zM26 14l-6 8h4v2c0 1.102-0.898 2-2 2h-12c-1.102 0-2-0.898-2-2v-2h-4v2c0 3.309 2.691 6 6 6h12c3.309 0 6-2.691 6-6v-2h4l-6-8z"></path>
</symbol>
<symbol id="icon-loop-alt3" viewBox="0 0 32 32">
<title>loop-alt3</title>
<path class="path1" d="M28 16v2c0 1.102-0.898 2-2 2h-14.004l0.004-4-8 6 8 6-0.004-4h14.004c3.309 0 6-2.695 6-6v-2h-4zM4 14c0-1.105 0.898-2 2-2h14v4l7.992-6-7.992-6v4h-14c-3.309 0-6 2.688-6 6v2h4v-2z"></path>
</symbol>
<symbol id="icon-loop-alt4" viewBox="0 0 32 32">
<title>loop-alt4</title>
<path class="path1" d="M28 18c0 1.102-0.898 2-2 2h-18.008v-4l-7.992 6 7.992 6v-4h18.008c3.309 0 6-2.695 6-6h-4zM6 12h18v4l8-6-8-6v4h-18c-3.309 0-6 2.688-6 6h4c0-1.102 0.898-2 2-2z"></path>
</symbol>
<symbol id="icon-transfer" viewBox="0 0 32 32">
<title>transfer</title>
<path class="path1" d="M31.998 24h-24.006v4l-7.992-6 7.992-6v4h24.006zM0 12h23.998v4l8-6-8-6v4h-23.998z"></path>
</symbol>
<symbol id="icon-move-vertical" viewBox="0 0 12 32">
<title>move-vertical</title>
<path class="path1" d="M8 20v6h4l-6 6-6-6h4v-6zM4 12v-6h-4l6-6 6 6h-4v6z"></path>
</symbol>
<symbol id="icon-move-vertical-alt1" viewBox="0 0 12 32">
<title>move-vertical-alt1</title>
<path class="path1" d="M6 22l2-2v6h4l-6 6-6-6h4v-6zM6 10.062l-2 1.938v-6h-4l6-6 6 6h-4v6z"></path>
</symbol>
<symbol id="icon-move-vertical-alt2" viewBox="0 0 32 32">
<title>move-vertical-alt2</title>
<path class="path1" d="M16 0c-8.836 0-16 7.164-16 16s7.164 16 16 16 16-7.164 16-16-7.164-16-16-16zM18 22h2l-4 4-4-4h2v-12h-2l4-4 4 4h-2v12z"></path>
</symbol>
<symbol id="icon-move-horizontal" viewBox="0 0 32 32">
<title>move-horizontal</title>
<path class="path1" d="M12 18h-6v4l-6-6 6-6v4h6zM20 14h6v-4l6 6-6 6v-4h-6z"></path>
</symbol>
<symbol id="icon-move-horizontal-alt1" viewBox="0 0 32 32">
<title>move-horizontal-alt1</title>
<path class="path1" d="M10 16l2 2h-6v4l-6-6 6-6v4h6zM21.938 16l-1.938-2h6v-4l6 6-6 6v-4h-6z"></path>
</symbol>
<symbol id="icon-move-horizontal-alt2" viewBox="0 0 32 32">
<title>move-horizontal-alt2</title>
<path class="path1" d="M32 16c0-8.836-7.164-16-16-16s-16 7.164-16 16 7.164 16 16 16 16-7.164 16-16zM10 18v2l-4-4 4-4v2h12v-2l4 4-4 4v-2h-12z"></path>
</symbol>
<symbol id="icon-arrow-left" viewBox="0 0 32 32">
<title>arrow-left</title>
<path class="path1" d="M32 12h-16l6-6-6-6-16 16 16 16 6-6-6-6h16z"></path>
</symbol>
<symbol id="icon-arrow-left-alt1" viewBox="0 0 32 32">
<title>arrow-left-alt1</title>
<path class="path1" d="M32 16c0-8.836-7.164-16-16-16-8.837 0-16 7.164-16 16 0 8.837 7.163 16 16 16 8.836 0 16-7.163 16-16zM8 16l8-8v6h8v4h-8v6l-8-8z"></path>
</symbol>
<symbol id="icon-arrow-left-alt2" viewBox="0 0 32 32">
<title>arrow-left-alt2</title>
<path class="path1" d="M16 32c8.836 0 16-7.164 16-16s-7.164-16-16-16-16 7.164-16 16 7.164 16 16 16zM10 12v2h16v4h-16v2l-4-4 4-4z"></path>
</symbol>
<symbol id="icon-arrow-right" viewBox="0 0 32 32">
<title>arrow-right</title>
<path class="path1" d="M0 20h16l-6 6 6 6 16-16-16-16-6 6 6 6h-16z"></path>
</symbol>
<symbol id="icon-arrow-right-alt1" viewBox="0 0 32 32">
<title>arrow-right-alt1</title>
<path class="path1" d="M0 16c0 8.836 7.164 16 16 16 8.837 0 16-7.164 16-16 0-8.837-7.163-16-16-16s-16 7.163-16 16zM24 16l-8 8v-6h-8v-4h8v-6l8 8z"></path>
</symbol>
<symbol id="icon-arrow-right-alt2" viewBox="0 0 32 32">
<title>arrow-right-alt2</title>
<path class="path1" d="M16 0c-8.836 0-16 7.164-16 16s7.164 16 16 16 16-7.164 16-16-7.164-16-16-16zM22 20v-2h-16v-4h16v-2l4 4-4 4z"></path>
</symbol>
<symbol id="icon-arrow-up" viewBox="0 0 32 32">
<title>arrow-up</title>
<path class="path1" d="M20 32v-16l6 6 6-6-16-16-16 16 6 6 6-6v16z"></path>
</symbol>
<symbol id="icon-arrow-up-alt1" viewBox="0 0 32 32">
<title>arrow-up-alt1</title>
<path class="path1" d="M16 32c8.836 0 16-7.164 16-16 0-8.837-7.164-16-16-16-8.837 0-16 7.163-16 16 0 8.836 7.163 16 16 16zM16 8l8 8h-6v8h-4v-8h-6l8-8z"></path>
</symbol>
<symbol id="icon-arrow-up-alt2" viewBox="0 0 32 32">
<title>arrow-up-alt2</title>
<path class="path1" d="M0 16c0 8.836 7.164 16 16 16s16-7.164 16-16-7.164-16-16-16-16 7.164-16 16zM20 10h-2v16h-4v-16h-2l4-4 4 4z"></path>
</symbol>
<symbol id="icon-arrow-down" viewBox="0 0 32 32">
<title>arrow-down</title>
<path class="path1" d="M12 0v16l-6-6-6 6 16 16 16-16-6-6-6 6v-16z"></path>
</symbol>
<symbol id="icon-arrow-down-alt1" viewBox="0 0 32 32">
<title>arrow-down-alt1</title>
<path class="path1" d="M16 0c-8.836 0-16 7.164-16 16 0 8.837 7.164 16 16 16 8.837 0 16-7.163 16-16s-7.163-16-16-16zM16 24l-8-8h6v-8h4v8h6l-8 8z"></path>
</symbol>
<symbol id="icon-arrow-down-alt2" viewBox="0 0 32 32">
<title>arrow-down-alt2</title>
<path class="path1" d="M32 16c0-8.836-7.164-16-16-16s-16 7.164-16 16 7.164 16 16 16 16-7.164 16-16zM12 22h2v-16h4v16h2l-4 4-4-4z"></path>
</symbol>
<symbol id="icon-cd" viewBox="0 0 32 32">
<title>cd</title>
<path class="path1" d="M16 0c-8.836 0-16 7.164-16 16s7.164 16 16 16 16-7.164 16-16-7.164-16-16-16zM16.031 19.934c-2.188 0-3.965-1.773-3.965-3.965 0-2.195 1.777-3.969 3.965-3.969 2.196 0 3.969 1.773 3.969 3.969 0 2.191-1.773 3.965-3.969 3.965z"></path>
</symbol>
<symbol id="icon-steering-wheel" viewBox="0 0 32 32">
<title>steering-wheel</title>
<path class="path1" d="M16 0c-8.836 0-16 7.164-16 16s7.164 16 16 16 16-7.164 16-16-7.164-16-16-16zM16 4c5.207 0 9.605 3.354 11.266 8h-22.532c1.661-4.646 6.059-8 11.266-8zM16 18c-1.105 0-2-0.895-2-2s0.895-2 2-2 2 0.895 2 2-0.895 2-2 2zM4 16c5.465 0 9.891 5.266 9.984 11.797-5.656-0.969-9.984-5.871-9.984-11.797zM18.016 27.797c0.093-6.531 4.519-11.797 9.984-11.797 0 5.926-4.328 10.828-9.984 11.797z"></path>
</symbol>
<symbol id="icon-microphone" viewBox="0 0 24 32">
<title>microphone</title>
<path class="path1" d="M12 16c2.211 0 4-1.791 4-4v-8c0-2.209-1.789-4-4-4s-4 1.791-4 4v8c0 2.209 1.789 4 4 4zM16 28h-2v-4.203c5.664-0.957 10-5.865 10-11.797v-1.938c0-1.105-0.895-2-2-2s-2 0.895-2 2v1.938c0 4.412-3.586 8-8 8s-8-3.588-8-8v-1.938c0-1.105-0.895-2-2-2s-2 0.895-2 2v1.938c0 5.932 4.336 10.84 10 11.797v4.203h-2c-2.211 0-4 1.789-4 4h16c0-2.211-1.789-4-4-4z"></path>
</symbol>
<symbol id="icon-headphones" viewBox="0 0 32 32">
<title>headphones</title>
<path class="path1" d="M30 18h-2v-4c0-6.625-5.375-12-12-12s-12 5.375-12 12v4h-2c-1.105 0-2 0.895-2 2v8c0 1.105 0.895 2 2 2h6v-16c0-4.414 3.586-8 8-8s8 3.586 8 8v16h6c1.105 0 2-0.895 2-2v-8c0-1.105-0.895-2-2-2z"></path>
</symbol>
<symbol id="icon-volume" viewBox="0 0 32 32">
<title>volume</title>
<path class="path1" d="M8 24c-4.418 0-8-3.582-8-8s3.582-8 8-8v16zM12 8l8-4v24l-8-4zM24.004 23.996v-4c0.332 0 0.668-0.043 1.004-0.125 1.754-0.445 2.992-2.039 2.992-3.871s-1.238-3.422-3.012-3.871c-0.316-0.078-0.652-0.121-0.984-0.121v-4c0.656 0 1.313 0.082 1.957 0.238 3.559 0.906 6.039 4.090 6.039 7.754 0 3.668-2.48 6.855-6.027 7.754-0.664 0.16-1.321 0.242-1.969 0.242v0z"></path>
</symbol>
<symbol id="icon-volume-mute" viewBox="0 0 32 32">
<title>volume-mute</title>
<path class="path1" d="M8 24c-4.418 0-8-3.582-8-8s3.582-8 8-8v16zM12 8l8-4v24l-8-4zM32 18h-8v-4h8z"></path>
</symbol>
<symbol id="icon-play" viewBox="0 0 24 32">
<title>play</title>
<path class="path1" d="M0 0l24 16-24 16z"></path>
</symbol>
<symbol id="icon-pause" viewBox="0 0 24 32">
<title>pause</title>
<path class="path1" d="M0 0h8v32h-8zM16 0h8v32h-8z"></path>
</symbol>
<symbol id="icon-stop" viewBox="0 0 32 32">
<title>stop</title>
<path class="path1" d="M0 0h32v32h-32z"></path>
</symbol>
<symbol id="icon-eject" viewBox="0 0 32 32">
<title>eject</title>
<path class="path1" d="M0 20l16-20 16 20zM0 24h31.957v8h-31.957z"></path>
</symbol>
<symbol id="icon-first" viewBox="0 0 32 32">
<title>first</title>
<path class="path1" d="M32 32l-24-16 24-16zM0 4h8v24h-8z"></path>
</symbol>
<symbol id="icon-last" viewBox="0 0 32 32">
<title>last</title>
<path class="path1" d="M0 0l24 16-24 16zM24 4h8v24h-8z"></path>
</symbol>
<symbol id="icon-play-alt" viewBox="0 0 32 32">
<title>play-alt</title>
<path class="path1" d="M16 0c-8.836 0-16 7.164-16 16s7.164 16 16 16 16-7.164 16-16-7.164-16-16-16zM10 24v-16l16.008 8-16.008 8z"></path>
</symbol>
<symbol id="icon-fullscreen-exit" viewBox="0 0 32 32">
<title>fullscreen-exit</title>
<path class="path1" d="M24.586 27.414l4.586 4.586 2.828-2.828-4.586-4.586 4.586-4.586h-12v12zM0 12h12v-12l-4.586 4.586-4.539-4.543-2.828 2.828 4.539 4.543zM0 29.172l2.828 2.828 4.586-4.586 4.586 4.586v-12h-12l4.586 4.586zM20 12h12l-4.586-4.586 4.547-4.543-2.828-2.828-4.547 4.543-4.586-4.586z"></path>
</symbol>
<symbol id="icon-fullscreen-exit-alt" viewBox="0 0 32 32">
<title>fullscreen-exit-alt</title>
<path class="path1" d="M28 20h-8v8l2.586-2.586 6.586 6.586 2.828-2.828-6.586-6.586zM25.414 9.414l6.586-6.586-2.828-2.828-6.586 6.586-2.586-2.586v8h8zM2.828 0l-2.828 2.828 6.586 6.586-2.586 2.586h8v-8l-2.586 2.586zM6.586 22.586l-6.586 6.586 2.828 2.828 6.586-6.586 2.586 2.586v-8h-8z"></path>
</symbol>
<symbol id="icon-fullscreen" viewBox="0 0 32 32">
<title>fullscreen</title>
<path class="path1" d="M27.414 24.586l-4.586-4.586-2.828 2.828 4.586 4.586-4.586 4.586h12v-12zM12 0h-12v12l4.586-4.586 4.543 4.539 2.828-2.828-4.543-4.539zM12 22.828l-2.828-2.828-4.586 4.586-4.586-4.586v12h12l-4.586-4.586zM32 0h-12l4.586 4.586-4.543 4.539 2.828 2.828 4.543-4.539 4.586 4.586z"></path>
</symbol>
<symbol id="icon-fullscreen-alt" viewBox="0 0 32 32">
<title>fullscreen-alt</title>
<path class="path1" d="M29.414 26.586l-6.586-6.586-2.828 2.828 6.586 6.586-2.586 2.586h8v-8zM2.586 5.414l6.586 6.586 2.828-2.828-6.586-6.586 2.586-2.586h-8v8zM26.586 2.586l-6.586 6.586 2.828 2.828 6.586-6.586 2.586 2.586v-8h-8zM12 22.828l-2.828-2.828-6.586 6.586-2.586-2.586v8h8l-2.586-2.586z"></path>
</symbol>
<symbol id="icon-iphone" viewBox="0 0 24 32">
<title>iphone</title>
<path class="path1" d="M16 0h-8c-4.418 0-8 3.582-8 8v16c0 4.418 3.582 8 8 8h8c4.418 0 8-3.582 8-8v-16c0-4.418-3.582-8-8-8zM12 30.062c-1.139 0-2.062-0.922-2.062-2.062s0.924-2.062 2.062-2.062 2.062 0.922 2.062 2.062-0.923 2.062-2.062 2.062zM20 24h-16v-16c0-2.203 1.795-4 4-4h8c2.203 0 4 1.797 4 4v16z"></path>
</symbol>
<symbol id="icon-battery-empty" viewBox="0 0 32 32">
<title>battery-empty</title>
<path class="path1" d="M32 12h-4v-2c0-1.098-0.898-2-2-2h-24c-1.102 0-2 0.902-2 2v12c0 1.098 0.898 2 2 2h24c1.102 0 2-0.902 2-2v-2h4v-8zM24 20h-20v-8h20v8z"></path>
</symbol>
<symbol id="icon-battery-half" viewBox="0 0 32 32">
<title>battery-half</title>
<path class="path1" d="M32 12h-4v-2c0-1.1-0.898-2-2-2h-24c-1.102 0-2 0.9-2 2v12c0 1.102 0.898 2 2 2h24c1.102 0 2-0.898 2-2v-2h4v-8zM24 20h-8v-8h8v8z"></path>
</symbol>
<symbol id="icon-battery-full" viewBox="0 0 32 32">
<title>battery-full</title>
<path class="path1" d="M28 12v-2c0-1.1-0.9-2-2-2h-24c-1.1 0-2 0.9-2 2v12c0 1.1 0.9 2 2 2h24c1.1 0 2-0.9 2-2v-2h4v-8h-4z"></path>
</symbol>
<symbol id="icon-battery-charging" viewBox="0 0 32 32">
<title>battery-charging</title>
<path class="path1" d="M28 12v-2c0-1.1-0.9-2-2-2h-24c-1.1 0-2 0.9-2 2v4h6.349c0.825-2.329 3.040-4 5.651-4v2h4v2h-4v4h4v2h-4v2c-2.611 0-4.827-1.671-5.651-4h-6.349v4c0 1.1 0.9 2 2 2h24c1.1 0 2-0.9 2-2v-2h4v-8h-4z"></path>
</symbol>
<symbol id="icon-compass" viewBox="0 0 32 32">
<title>compass</title>
<path class="path1" d="M18.125 13.879c0.797 0.799 1.008 1.93 0.719 2.943l5.156-8.822-8.703 5.139c0.984-0.243 2.058-0.030 2.828 0.74zM13.883 18.121c-0.773-0.771-0.984-1.85-0.742-2.836l-5.141 8.715 8.832-5.16c-1.016 0.293-2.148 0.082-2.949-0.719zM16 4c6.617 0 12 5.383 12 12s-5.383 12-12 12-12-5.383-12-12 5.383-12 12-12zM16 0c-8.836 0-16 7.164-16 16s7.164 16 16 16 16-7.164 16-16-7.164-16-16-16v0z"></path>
</symbol>
<symbol id="icon-box" viewBox="0 0 32 32">
<title>box</title>
<path class="path1" d="M0 12h32v20h-32zM18 8h14l-4-8h-10zM14 0h-10l-4 8h14z"></path>
</symbol>
<symbol id="icon-folder-stroke" viewBox="0 0 32 32">
<title>folder-stroke</title>
<path class="path1" d="M16 4.002v-4.002h-16v28c0 2.211 1.789 4 4 4h24c2.207 0 4-1.789 4-4v-23.998h-16zM28 16.004v11.996h-24v-12l24 0.004zM28 12h-24v-8l8 0.002v3.998h16v4z"></path>
</symbol>
<symbol id="icon-folder-fill" viewBox="0 0 32 32">
<title>folder-fill</title>
<path class="path1" d="M32 30c0 1.105-0.895 2-2 2h-28c-1.105 0-2-0.895-2-2v-18h32v18zM12 4.002v-4.002h-12v8h32v-3.998z"></path>
</symbol>
<symbol id="icon-at" viewBox="0 0 32 32">
<title>at</title>
<path class="path1" d="M29.844 24c1.371-2.355 2.156-5.078 2.156-8 0-8.836-7.164-16-16-16s-16 7.164-16 16 7.164 16 16 16c4.418 0 8.418-1.789 11.312-4.688l-2.832-2.832c-2.171 2.176-5.171 3.52-8.48 3.52-6.617 0-12-5.383-12-12s5.383-12 12-12 12 5.383 12 12c0 1.422-0.273 2.781-0.73 4.047l-0.032-0.047h-3.238v-11.957h-8c-4.418 0-8 3.582-8 8s3.582 8 8 8c1.836 0 3.508-0.645 4.859-1.684 0.727 0.969 1.836 1.641 3.141 1.641h5.844zM20 14.008v2.035c0 2.207-1.797 4-4 4s-4-1.793-4-4 1.797-4 4-4h4v1.965z"></path>
</symbol>
<symbol id="icon-ampersand" viewBox="0 0 19 32">
<title>ampersand</title>
<path class="path1" d="M9.212 32c-2.359 0-4.719-0.898-6.52-2.691-3.59-3.598-3.59-9.449 0-13.039l8.113-7.938c0.461-0.465 0.727-1.102 0.727-1.785 0-0.68-0.266-1.32-0.742-1.805-0.992-0.992-2.609-0.988-3.609 0.004-0.985 0.992-0.985 2.609 0.007 3.602l-2.832 2.832c-2.55-2.555-2.55-6.707-0.003-9.262 2.562-2.559 6.711-2.555 9.264-0.004 1.242 1.238 1.922 2.887 1.922 4.637s-0.68 3.395-1.922 4.629l-8.111 7.934c-2.020 2.016-2.020 5.328 0.020 7.363 2.031 2.035 5.344 2.031 7.383 0 2.029-2.035 2.029-5.348 0-7.379l-1.422-1.414 4.35-4.348 2.828 2.828-1.672 1.672c2.266 3.562 1.852 8.359-1.258 11.469-1.798 1.797-4.164 2.695-6.523 2.695v0z"></path>
</symbol>
<symbol id="icon-info" viewBox="0 0 16 32">
<title>info</title>
<path class="path1" d="M2 16c1.105 0 2 0.895 2 2v8c0 1.105-0.895 2-2 2h-2v4h16v-4h-1.992c-1.102 0-2.008-0.895-2.008-2l-0.004-14h-11.996v4h2zM4 4c0-2.209 1.791-4 4-4s4 1.791 4 4c0 2.209-1.791 4-4 4s-4-1.791-4-4z"></path>
</symbol>
<symbol id="icon-question-mark" viewBox="0 0 16 32">
<title>question-mark</title>
<path class="path1" d="M5.6 30c0-1.105 0.895-2 2-2s2 0.895 2 2c0 1.105-0.895 2-2 2s-2-0.895-2-2zM7.676 25.977c-1.336 0-2.59-0.52-3.535-1.465s-1.465-2.199-1.465-3.535 0.52-2.59 1.465-3.535l6.688-6.688c0.757-0.756 1.171-1.76 1.171-2.828s-0.414-2.072-1.172-2.828c-1.559-1.56-4.096-1.563-5.654 0-0.758 0.756-1.174 1.759-1.174 2.828h-4c0-2.137 0.834-4.147 2.348-5.659 3.020-3.023 8.285-3.021 11.309 0.002 1.511 1.509 2.343 3.518 2.343 5.657 0 2.137-0.832 4.145-2.344 5.656l-6.687 6.688c-0.389 0.391-0.389 1.023 0 1.414 0.391 0.391 1.023 0.391 1.414 0 0.254-0.254 0.293-0.555 0.293-0.707h4c0 1.336-0.52 2.59-1.465 3.535s-2.199 1.465-3.535 1.465v0z"></path>
</symbol>
<symbol id="icon-pilcrow" viewBox="0 0 24 32">
<title>pilcrow</title>
<path class="path1" d="M24 0h-16c-4.418 0-8 3.582-8 8s3.582 8 8 8v16h4v-28h4v28h4v-28h4v-4z"></path>
</symbol>
<symbol id="icon-hash" viewBox="0 0 28 32">
<title>hash</title>
<path class="path1" d="M28 12v-4h-5.004l1-8h-4l-1 8h-7.998l1-8h-4l-1 8h-6.998v4h6.498l-0.998 8h-5.5v4h5l-1 8h4l1-8h7.998l-1 8h4.002l1-8h7v-4h-6.5l0.996-8h5.504zM17.498 20h-7.998l0.998-8h7.998l-0.998 8z"></path>
</symbol>
<symbol id="icon-left-quote" viewBox="0 0 32 32">
<title>left-quote</title>
<path class="path1" d="M32 28v-12h-8c0-4.41 3.586-8 8-8v-4c-6.617 0-12 5.383-12 12v12h12zM12 28v-12h-8c0-4.41 3.586-8 8-8v-4c-6.617 0-12 5.383-12 12v12h12z"></path>
</symbol>
<symbol id="icon-right-quote" viewBox="0 0 32 32">
<title>right-quote</title>
<path class="path1" d="M0 4v12h8c0 4.41-3.586 8-8 8v4c6.617 0 12-5.383 12-12v-12h-12zM20 4v12h8c0 4.41-3.586 8-8 8v4c6.617 0 12-5.383 12-12v-12h-12z"></path>
</symbol>
<symbol id="icon-left-quote-alt" viewBox="0 0 32 32">
<title>left-quote-alt</title>
<path class="path1" d="M32 28v-24l-12 12v12zM12 28v-24l-12 12v12z"></path>
</symbol>
<symbol id="icon-right-quote-alt" viewBox="0 0 32 32">
<title>right-quote-alt</title>
<path class="path1" d="M0 4v24l12-12v-12zM20 4v24l12-12v-12z"></path>
</symbol>
<symbol id="icon-article" viewBox="0 0 32 32">
<title>article</title>
<path class="path1" d="M32 4h-32v-4h32zM20 12h-20v-4h20zM32 24h-32v-4h32zM24 32h-24v-4h24zM32 30c0 1.105-0.897 2-1.998 2-1.108 0-2.002-0.895-2.002-2s0.894-2 2.002-2c1.101 0 1.998 0.895 1.998 2z"></path>
</symbol>
<symbol id="icon-read-more" viewBox="0 0 32 32">
<title>read-more</title>
<path class="path1" d="M32 4h-32v-4h32zM20 12h-20v-4h20zM32 20h-32v-4h32zM0 30c0-1.105 0.895-2 2-2s2 0.895 2 2c0 1.105-0.895 2-2 2s-2-0.895-2-2zM16 30c0-1.105 0.895-2 2-2s2 0.895 2 2c0 1.105-0.895 2-2 2s-2-0.895-2-2zM8 30c0-1.105 0.895-2 2-2s2 0.895 2 2c0 1.105-0.895 2-2 2s-2-0.895-2-2z"></path>
</symbol>
<symbol id="icon-list" viewBox="0 0 37 32">
<title>list</title>
<path class="path1" d="M0 2.286c0-1.262 1.023-2.286 2.286-2.286s2.286 1.023 2.286 2.286c0 1.262-1.023 2.286-2.286 2.286s-2.286-1.023-2.286-2.286zM0 11.429c0-1.262 1.023-2.286 2.286-2.286s2.286 1.023 2.286 2.286c0 1.262-1.023 2.286-2.286 2.286s-2.286-1.023-2.286-2.286zM0 20.571c0-1.262 1.023-2.286 2.286-2.286s2.286 1.023 2.286 2.286c0 1.262-1.023 2.286-2.286 2.286s-2.286-1.023-2.286-2.286zM0 29.715c0-1.262 1.023-2.286 2.286-2.286s2.286 1.023 2.286 2.286c0 1.262-1.023 2.286-2.286 2.286s-2.286-1.023-2.286-2.286zM9.143 0h27.426v4.571h-27.426zM9.143 9.143h27.426v4.571h-27.426zM9.143 18.286h27.426v4.571h-27.426zM9.143 27.429h27.426v4.571h-27.426z"></path>
</symbol>
<symbol id="icon-list-nested" viewBox="0 0 37 32">
<title>list-nested</title>
<path class="path1" d="M0 2.286c0-1.262 1.023-2.286 2.286-2.286s2.286 1.023 2.286 2.286c0 1.262-1.023 2.286-2.286 2.286s-2.286-1.023-2.286-2.286zM9.143 0h27.429v4.571h-27.429zM9.143 11.429c0-1.262 1.023-2.286 2.286-2.286s2.286 1.023 2.286 2.286c0 1.262-1.023 2.286-2.286 2.286s-2.286-1.023-2.286-2.286zM18.286 9.143h18.286v4.571h-18.286zM9.143 29.714c0-1.262 1.023-2.286 2.286-2.286s2.286 1.023 2.286 2.286c0 1.262-1.023 2.286-2.286 2.286s-2.286-1.023-2.286-2.286zM18.286 27.429h18.286v4.571h-18.286zM18.286 20.571c0-1.262 1.023-2.286 2.286-2.286s2.286 1.023 2.286 2.286c0 1.262-1.023 2.286-2.286 2.286s-2.286-1.023-2.286-2.286zM27.429 18.286h9.143v4.571h-9.143z"></path>
</symbol>
<symbol id="icon-book" viewBox="0 0 28 32">
<title>book</title>
<path class="path1" d="M4 0c-2.2 0-4 1.8-4 4v24c0 2.2 1.8 4 4 4h24v-32h-24zM24 28h-16v-24h4v8l4-4 4 4v-8h4v24z"></path>
</symbol>
<symbol id="icon-book-alt" viewBox="0 0 32 32">
<title>book-alt</title>
<path class="path1" d="M32 4h-4v-4h-24c-2.2 0-4 1.8-4 4v24c0 2.2 1.8 4 4 4h24v-20h4l-4-4 4-4zM24 28h-16v-24h16v24zM12 8h8v4h-8z"></path>
</symbol>
<symbol id="icon-book-alt2" viewBox="0 0 32 32">
<title>book-alt2</title>
<path class="path1" d="M16 6c0 0-4-4-16-4v24c12.125 0 16 4 16 4s3.875-4 16-4v-24c-12 0-16 4-16 4zM4 6c5.084 0.426 8.203 1.602 10 2.555v16.109c-1.797-0.949-4.916-2.125-10-2.555v-16.109zM28 22.109c-5.086 0.43-8.203 1.604-10 2.555v-16.109c1.797-0.953 4.914-2.129 10-2.555v16.109z"></path>
</symbol>
<symbol id="icon-pen" viewBox="0 0 32 32">
<title>pen</title>
<path class="path1" d="M29.656 2.344c-1.558-1.563-3.605-2.344-5.656-2.344-2.047 0-4.094 0.781-5.656 2.344l-18.313 18.312-0.031 11.344h11.312l18.344-18.344c3.125-3.125 3.125-8.187 0-11.312zM9.656 28h-1.656v-4h-3.977l0.004-1.68 17.145-17.148 5.656 5.656-17.172 17.172z"></path>
</symbol>
<symbol id="icon-pen-alt-stroke" viewBox="0 0 32 32">
<title>pen-alt-stroke</title>
<path class="path1" d="M29.656 2.344c-1.562-1.563-3.609-2.344-5.656-2.344s-4.094 0.781-5.656 2.344l-18.313 18.312-0.031 11.344h11.312l18.344-18.344c3.125-3.125 3.125-8.187 0-11.312zM9.656 28h-0.043c1.562-1.562 1.562-4.125 0-5.688-1.496-1.496-3.859-1.516-5.43-0.148l16.954-16.953 5.656 5.656-17.137 17.133z"></path>
</symbol>
<symbol id="icon-pen-alt-fill" viewBox="0 0 32 32">
<title>pen-alt-fill</title>
<path class="path1" d="M29.656 2.344c-3.121-3.125-8.191-3.125-11.312 0l-18.313 18.312-0.031 11.344h11.312l18.344-18.344c3.125-3.125 3.125-8.187 0-11.312zM9.613 28h-5.656v-5.688c1.562-1.562 4.094-1.562 5.656 0s1.563 4.126 0 5.688zM26.754 10.828l-5.656-5.656c1.562-1.562 4.094-1.562 5.656 0s1.562 4.094 0 5.656z"></path>
</symbol>
<symbol id="icon-pen-alt2" viewBox="0 0 32 32">
<title>pen-alt2</title>
<path class="path1" d="M30.827 1.172c-1.562-1.562-4.094-1.562-5.656 0l-15.124 15.129c1.352 0.352 2.602 1.031 3.617 2.047 1.031 1.031 1.688 2.289 2.039 3.609l15.124-15.13c1.563-1.562 1.563-4.094 0-5.656zM10.836 26.832c1.562-1.562 1.562-4.094 0-5.656s-4.094-1.562-5.656 0l-5.18 10.824 10.836-5.168z"></path>
</symbol>
<symbol id="icon-brush" viewBox="0 0 32 32">
<title>brush</title>
<path class="path1" d="M30.826 1.172c-1.562-1.562-4.094-1.562-5.656 0l-11.4 11.398c2.641 0.941 4.719 3.020 5.656 5.66l11.4-11.402c1.563-1.562 1.563-4.094 0-5.656zM15.996 21.332c0-2.945-2.391-5.332-5.336-5.332s-5.332 2.387-5.332 5.332l0.004 0.004c-0.004 3.945-2.148 7.387-5.332 9.23l0.016 0.020c1.566 0.898 3.379 1.414 5.316 1.414 5.891 0 10.668-4.777 10.668-10.668h-0.004z"></path>
</symbol>
<symbol id="icon-brush-alt" viewBox="0 0 32 32">
<title>brush-alt</title>
<path class="path1" d="M12 24c0-2.211-1.793-4-4-4-2.211 0-4 1.789-4 4v0.008c0 2.957-1.609 5.535-4 6.918l0.016 0.012c1.172 0.675 2.531 1.062 3.984 1.062 4.418 0 8-3.582 8-8v0zM30.826 1.172c-1.562-1.562-4.094-1.562-5.656 0l-15.123 15.125c2.758 0.738 4.922 2.898 5.656 5.66l15.123-15.129c1.563-1.562 1.563-4.094 0-5.656z"></path>
</symbol>
<symbol id="icon-eyedropper" viewBox="0 0 32 32">
<title>eyedropper</title>
<path class="path1" d="M29.655 13.684c3.121-3.119 3.121-8.18 0-11.297-1.559-1.559-3.605-2.34-5.648-2.34-2.041 0-4.088 0.781-5.646 2.34l-0.59 0.59-2.974-2.977-2.82 2.822 2.977 2.975-14.954 14.963v7.248l3.93 3.992h7.414l14.901-14.906 2.875 2.877 2.824-2.82-2.879-2.877 0.59-0.59zM10.32 27.367c0.047-1.516-0.477-3.035-1.629-4.188-1.059-1.062-2.441-1.582-3.832-1.629l12.919-12.923 5.643 5.639-13.101 13.101z"></path>
</symbol>
<symbol id="icon-layers-alt" viewBox="0 0 32 32">
<title>layers-alt</title>
<path class="path1" d="M0 24l16.001 4 15.999-4v4l-15.999 4-16.001-4zM0 16l16.001 4 15.999-4v4l-15.999 4-16.001-4zM0 8l16.001 4 15.999-4v4l-15.999 4-16.001-4zM0 0l16.001 4 15.999-4v4l-15.999 4-16.001-4z"></path>
</symbol>
<symbol id="icon-layers" viewBox="0 0 32 32">
<title>layers</title>
<path class="path1" d="M0 22l16.001 4 15.999-4v4l-15.999 4-16.001-4zM0 14l16.001 4 15.999-4v4l-15.999 4-16.001-4zM0 6l16.001-4 15.999 4v4l-15.999 4-16.001-4z"></path>
</symbol>
<symbol id="icon-image" viewBox="0 0 32 32">
<title>image</title>
<path class="path1" d="M8 24v-8l4-4 4 4 8-8 8 8v8zM4 28v-28l-4 4v28h28l4-4z"></path>
</symbol>
<symbol id="icon-camera" viewBox="0 0 32 32">
<title>camera</title>
<path class="path1" d="M16 20c0-2.209 1.791-4 4-4s4 1.791 4 4c0 2.209-1.791 4-4 4s-4-1.791-4-4zM28 8l-3.289-6.643c-0.27-0.789-1.016-1.357-1.899-1.357h-5.492c-0.893 0-1.646 0.582-1.904 1.385l-3.412 6.615h-8.004c-2.209 0-4 1.791-4 4v20h32v-20c0-2.209-1.789-4-4-4zM6 16c-1.105 0-2-0.895-2-2s0.895-2 2-2 2 0.895 2 2-0.895 2-2 2zM20 28c-4.418 0-8-3.582-8-8s3.582-8 8-8 8 3.582 8 8-3.582 8-8 8z"></path>
</symbol>
<symbol id="icon-aperture" viewBox="0 0 32 32">
<title>aperture</title>
<path class="path1" d="M21.172 13.98l5.691-9.664c-2.855-2.658-6.652-4.316-10.863-4.316-0.998 0-1.965 0.119-2.912 0.293l8.084 13.687zM19.953 20h11.48c0.333-1.285 0.567-2.609 0.567-4 0-3.873-1.43-7.377-3.723-10.145l-8.324 14.145zM16.5 10l-5.408-9.152c-4.5 1.459-8.139 4.798-9.904 9.152h15.312zM15.633 22l5.391 9.117c4.449-1.484 8.039-4.801 9.789-9.117h-15.18zM12.105 12h-11.539c-0.334 1.285-0.566 2.609-0.566 4 0 3.891 1.445 7.41 3.756 10.188l8.349-14.188zM10.918 17.961l-5.744 9.758c2.853 2.633 6.635 4.281 10.826 4.281 1.041 0 2.055-0.117 3.039-0.305l-8.121-13.734z"></path>
</symbol>
<symbol id="icon-aperture-alt" viewBox="0 0 32 32">
<title>aperture-alt</title>
<path class="path1" d="M30.309 8.973l-9.973 9.973h11.367c0.18-0.962 0.297-1.938 0.297-2.946 0-2.533-0.641-4.898-1.691-7.027zM21.055 15.24l8.203-8.199c-1.953-2.879-4.844-5.021-8.203-6.146v14.345zM16.748 21.055l8.205 8.207c2.883-1.949 5.027-4.844 6.152-8.207h-14.357zM18.943 11.744v-11.447c-0.957-0.178-1.935-0.297-2.943-0.297-2.555 0-4.938 0.654-7.080 1.721l10.023 10.023zM13.057 20.352v11.352c0.957 0.179 1.935 0.296 2.943 0.296 2.531 0 4.891-0.641 7.020-1.688l-9.963-9.96zM10.943 16.773l-8.193 8.192c1.949 2.875 4.838 5.016 8.193 6.141v-14.333zM0.297 13.057c-0.178 0.957-0.297 1.935-0.297 2.943 0 2.539 0.645 4.906 1.695 7.035l9.979-9.979h-11.377zM6.996 2.781c-2.855 1.949-4.982 4.823-6.101 8.162h14.264l-8.163-8.162z"></path>
</symbol>
<symbol id="icon-chart" viewBox="0 0 32 32">
<title>chart</title>
<path class="path1" d="M13.741 19.398l-10.008-10c-4.977 5.754-4.977 14.247 0 20l10.008-10zM20.001 4.158v14.646l-10.352 10.356c2.328 1.738 5.156 2.84 8.281 2.84 7.773 0 14.070-6.289 14.070-14.059 0.001-7.058-5.232-12.777-11.999-13.783zM16 16.016v-16.016c-4.359 0.27-8.297 1.938-11.477 4.537l11.477 11.479z"></path>
</symbol>
<symbol id="icon-chart-alt" viewBox="0 0 30 32">
<title>chart-alt</title>
<path class="path1" d="M14.533 19.422l-10.578-10.578c-5.273 6.086-5.273 15.070 0 21.156l10.578-10.578zM16 18v-18c-4.906 0.305-9.328 2.18-12.897 5.102l12.897 12.898zM18.002 4.016v14.812l-10.383 10.383c2.328 1.711 5.133 2.789 8.235 2.789 7.818 0 14.146-6.328 14.146-14.133 0-7.078-5.227-12.812-11.998-13.851z"></path>
</symbol>
<symbol id="icon-bars" viewBox="0 0 32 32">
<title>bars</title>
<path class="path1" d="M24 0h8v32h-8zM12 8h8v24h-8zM0 16h8v16h-8z"></path>
</symbol>
<symbol id="icon-bars-alt" viewBox="0 0 28 32">
<title>bars-alt</title>
<path class="path1" d="M24 0h4v32h-4zM16 8h4v24h-4zM8 16h4v16h-4zM0 24h4v8h-4z"></path>
</symbol>
<symbol id="icon-eye" viewBox="0 0 32 32">
<title>eye</title>
<path class="path1" d="M16 4c-8.836 0-16 11.844-16 11.844s7.164 12.156 16 12.156 16-12.156 16-12.156-7.164-11.844-16-11.844zM16 24c-4.418 0-8-3.582-8-8s3.582-8 8-8 8 3.582 8 8-3.582 8-8 8zM12 16c0-2.209 1.791-4 4-4s4 1.791 4 4c0 2.209-1.791 4-4 4s-4-1.791-4-4z"></path>
</symbol>
<symbol id="icon-user" viewBox="0 0 24 32">
<title>user</title>
<path class="path1" d="M12 16c-6.625 0-12 5.375-12 12 0 2.211 1.789 4 4 4h16c2.211 0 4-1.789 4-4 0-6.625-5.375-12-12-12zM6 6c0-3.314 2.686-6 6-6s6 2.686 6 6c0 3.314-2.686 6-6 6s-6-2.686-6-6z"></path>
</symbol>
<symbol id="icon-home" viewBox="0 0 32 32">
<title>home</title>
<path class="path1" d="M16 0l-16 16h4v16h24v-16h4l-16-16zM24 28h-6v-6h-4v6h-6v-14.344l8-5.656 8 5.656v14.344z"></path>
</symbol>
<symbol id="icon-clock" viewBox="0 0 32 32">
<title>clock</title>
<path class="path1" d="M16 4c6.617 0 12 5.383 12 12s-5.383 12-12 12-12-5.383-12-12 5.383-12 12-12zM16 0c-8.836 0-16 7.164-16 16s7.164 16 16 16 16-7.164 16-16-7.164-16-16-16v0zM21.422 18.578l-3.422-3.426v-7.152h-4.023v7.992c0 0.602 0.277 1.121 0.695 1.492l3.922 3.922 2.828-2.828z"></path>
</symbol>
<symbol id="icon-lock-stroke" viewBox="0 0 24 32">
<title>lock-stroke</title>
<path class="path1" d="M14.004 0c-5.51 0-9.998 4.484-9.998 10v2h-4.006v14c0 3.305 2.695 6 5.998 6h12.002c3.313 0 6-2.695 6-6v-16c0-5.516-4.484-10-9.996-10zM8.006 10c0-3.312 2.693-6 5.998-6 3.309 0 5.996 2.688 5.996 6v2h-11.994v-2zM18 28h-12.002c-1.102 0-2-0.898-2-2v-10h16.002v10c0 1.102-0.891 2-2 2zM14 22c0 1.102-0.898 2-2 2-1.109 0-2-0.898-2-2 0-1.109 0.891-2 2-2 1.102 0 2 0.891 2 2z"></path>
</symbol>
<symbol id="icon-lock-fill" viewBox="0 0 24 32">
<title>lock-fill</title>
<path class="path1" d="M14 0c-5.508 0-9.996 4.484-9.996 10v2h-4.004v14c0 3.309 2.691 6 6 6h12c3.309 0 6-2.691 6-6v-16c0-5.516-4.488-10-10-10zM11.996 24c-1.101 0-1.996-0.895-1.996-2s0.895-2 1.996-2c1.105 0 2 0.895 2 2s-0.894 2-2 2zM20 12h-11.996v-2c0-3.309 2.691-6 5.996-6 3.309 0 6 2.691 6 6v2z"></path>
</symbol>
<symbol id="icon-unlock-stroke" viewBox="0 0 24 32">
<title>unlock-stroke</title>
<path class="path1" d="M14.004 0c-5.514 0-9.998 4.488-9.998 10h4c0-3.305 2.689-6 5.998-6s5.996 2.695 5.996 6v2h-20v14c0 3.312 2.691 6 5.998 6h12.002c3.309 0 6-2.688 6-6v-16c0-5.512-4.484-10-9.996-10zM18 28h-12.002c-1.102 0-2-0.895-2-2v-10h16.002v10c0 1.105-0.898 2-2 2zM14 22c0 1.109-0.895 2-2 2s-2-0.891-2-2c0-1.102 0.895-2 2-2s2 0.898 2 2z"></path>
</symbol>
<symbol id="icon-unlock-fill" viewBox="0 0 24 32">
<title>unlock-fill</title>
<path class="path1" d="M14.004 0c-5.516 0-9.996 4.484-9.996 10h3.996c0-3.309 2.688-6 6-6 3.305 0 5.996 2.691 5.996 6v2h-20v14c0 3.309 2.695 6 6 6h12c3.305 0 6-2.691 6-6v-16c0-5.516-4.488-10-9.996-10zM12 24c-1.102 0-2-0.895-2-2s0.898-2 2-2c1.109 0 2 0.895 2 2s-0.891 2-2 2z"></path>
</symbol>
<symbol id="icon-tag-stroke" viewBox="0 0 32 32">
<title>tag-stroke</title>
<path class="path1" d="M0 0v13.273l18.727 18.727c0 0 0-10.793 0-13.27 2.477 0 13.273 0 13.273 0l-18.727-18.73h-13.273zM11.797 3.562c0.773 0.77 7.879 7.883 11.602 11.605-3.102 0-8.234 0-8.234 0s0 5.133 0 8.227c-3.724-3.718-10.829-10.828-11.603-11.593 0-1.055 0-5.961 0-8.238 2.278-0.001 7.18-0.001 8.235-0.001zM11.699 8.613c0 1.703-1.383 3.086-3.082 3.086-1.703 0-3.086-1.383-3.086-3.086 0-1.699 1.383-3.078 3.086-3.078 1.699 0 3.082 1.379 3.082 3.078z"></path>
</symbol>
<symbol id="icon-tag-fill" viewBox="0 0 32 32">
<title>tag-fill</title>
<path class="path1" d="M13.277 0h-13.277v13.277l18.719 18.723v-13.277h13.281l-18.723-18.723zM7.312 11.121c-2.102 0-3.805-1.703-3.805-3.805s1.703-3.805 3.805-3.805 3.805 1.703 3.805 3.805-1.703 3.805-3.805 3.805z"></path>
</symbol>
<symbol id="icon-sun-stroke" viewBox="0 0 32 32">
<title>sun-stroke</title>
<path class="path1" d="M16.001 12c2.203 0 4 1.795 4 4s-1.797 4-4 4-4-1.795-4-4 1.797-4 4-4zM16.001 8c-4.418 0-8 3.582-8 8s3.582 8 8 8c4.418 0 7.999-3.582 7.999-8s-3.581-8-7.999-8v0zM14 2c0-1.105 0.895-2 2-2s2 0.895 2 2c0 1.105-0.895 2-2 2s-2-0.895-2-2zM4 6c0-1.105 0.895-2 2-2s2 0.895 2 2c0 1.105-0.895 2-2 2s-2-0.895-2-2zM2 14c1.105 0 2 0.895 2 2 0 1.107-0.895 2-2 2s-2-0.893-2-2c0-1.105 0.895-2 2-2zM4 26c0-1.105 0.895-2 2-2s2 0.895 2 2c0 1.105-0.895 2-2 2s-2-0.895-2-2zM14 30c0-1.109 0.895-2 2-2 1.108 0 2 0.891 2 2 0 1.102-0.892 2-2 2-1.105 0-2-0.898-2-2zM24 26c0-1.105 0.895-2 2-2s2 0.895 2 2c0 1.105-0.895 2-2 2s-2-0.895-2-2zM30 18c-1.104 0-2-0.896-2-2 0-1.107 0.896-2 2-2s2 0.893 2 2c0 1.104-0.896 2-2 2zM24 6c0-1.105 0.895-2 2-2s2 0.895 2 2c0 1.105-0.895 2-2 2s-2-0.895-2-2z"></path>
</symbol>
<symbol id="icon-sun-fill" viewBox="0 0 32 32">
<title>sun-fill</title>
<path class="path1" d="M16.001 8c-4.418 0-8 3.582-8 8s3.582 8 8 8c4.418 0 7.999-3.582 7.999-8s-3.581-8-7.999-8v0zM14 2c0-1.105 0.895-2 2-2s2 0.895 2 2c0 1.105-0.895 2-2 2s-2-0.895-2-2zM4 6c0-1.105 0.895-2 2-2s2 0.895 2 2c0 1.105-0.895 2-2 2s-2-0.895-2-2zM2 14c1.105 0 2 0.895 2 2 0 1.107-0.895 2-2 2s-2-0.893-2-2c0-1.105 0.895-2 2-2zM4 26c0-1.105 0.895-2 2-2s2 0.895 2 2c0 1.105-0.895 2-2 2s-2-0.895-2-2zM14 30c0-1.109 0.895-2 2-2 1.108 0 2 0.891 2 2 0 1.102-0.892 2-2 2-1.105 0-2-0.898-2-2zM24 26c0-1.105 0.895-2 2-2s2 0.895 2 2c0 1.105-0.895 2-2 2s-2-0.895-2-2zM30 18c-1.104 0-2-0.896-2-2 0-1.107 0.896-2 2-2s2 0.893 2 2c0 1.104-0.896 2-2 2zM24 6c0-1.105 0.895-2 2-2s2 0.895 2 2c0 1.105-0.895 2-2 2s-2-0.895-2-2z"></path>
</symbol>
<symbol id="icon-moon-stroke" viewBox="0 0 32 32">
<title>moon-stroke</title>
<path class="path1" d="M5.895 9.148c0.848 8.959 8 16.109 16.957 16.953-1.91 1.211-4.152 1.898-6.5 1.898-6.813 0.001-12.352-5.538-12.352-12.353 0-2.347 0.688-4.587 1.895-6.498zM11.844 0c-6.824 1.969-11.844 8.189-11.844 15.646 0 9.034 7.32 16.354 16.352 16.354 7.457 0 13.68-5.023 15.648-11.844-2.18 1.258-4.672 2.031-7.367 2.031-8.188 0-14.82-6.639-14.82-14.822-0.001-2.695 0.773-5.187 2.031-7.365v0z"></path>
</symbol>
<symbol id="icon-moon-fill" viewBox="0 0 32 32">
<title>moon-fill</title>
<path class="path1" d="M24.633 22.184c-8.188 0-14.82-6.637-14.82-14.82 0-2.695 0.773-5.188 2.031-7.363-6.824 1.968-11.844 8.187-11.844 15.644 0 9.031 7.32 16.355 16.352 16.355 7.457 0 13.68-5.023 15.648-11.844-2.18 1.254-4.672 2.028-7.367 2.028z"></path>
</symbol>
<symbol id="icon-cloud" viewBox="0 0 32 32">
<title>cloud</title>
<path class="path1" d="M24 10c-0.379 0-0.738 0.061-1.102 0.111-1.394-2.465-3.972-4.111-6.898-4.111-2.988 0-5.566 1.666-6.941 4.1-0.352-0.047-0.704-0.1-1.059-0.1-4.41 0-8 3.588-8 8 0 4.414 3.59 8 8 8h16c4.41 0 8-3.586 8-8 0-4.412-3.59-8-8-8zM24 22h-16c-2.207 0-4-1.797-4-4 0-2.193 1.941-3.885 4.004-3.945 0.008 0.943 0.172 1.869 0.5 2.744l3.746-1.402c-0.168-0.444-0.25-0.915-0.25-1.397 0-2.205 1.793-4 4-4 1.293 0 2.465 0.641 3.199 1.639-1.929 1.461-3.199 3.756-3.199 6.361h4c0-2.205 1.793-4 4-4s4 1.795 4 4c0 2.203-1.793 4-4 4z"></path>
</symbol>
<symbol id="icon-rain" viewBox="0 0 32 32">
<title>rain</title>
<path class="path1" d="M23.998 6c-0.375 0-0.733 0.061-1.103 0.111-1.389-2.465-3.969-4.111-6.895-4.111-2.987 0-5.565 1.666-6.94 4.1-0.353-0.047-0.705-0.1-1.060-0.1-4.41 0-8 3.588-8 8s3.59 8 8 8h15.998c4.414 0 8-3.588 8-8s-3.586-8-8-8zM23.998 18h-15.998c-2.207 0-4-1.795-4-4 0-2.193 1.941-3.885 4.004-3.945 0.009 0.943 0.172 1.869 0.5 2.744l3.746-1.402c-0.168-0.444-0.25-0.915-0.25-1.397 0-2.205 1.793-4 4-4 1.293 0 2.465 0.641 3.199 1.639-1.928 1.461-3.199 3.756-3.199 6.361h4c0-2.205 1.795-4 3.998-4 2.211 0 4 1.795 4 4s-1.789 4-4 4zM3.281 29.438c-0.75 0.75-1.969 0.75-2.719 0s-0.75-1.969 0-2.719 5.438-2.719 5.438-2.719-1.969 4.688-2.719 5.438zM11.285 29.438c-0.75 0.75-1.965 0.75-2.719 0-0.75-0.75-0.75-1.969 0-2.719 0.754-0.75 5.438-2.719 5.438-2.719s-1.965 4.688-2.719 5.438zM19.28 29.438c-0.75 0.75-1.969 0.75-2.719 0s-0.75-1.969 0-2.719 5.437-2.719 5.437-2.719-1.968 4.688-2.718 5.438z"></path>
</symbol>
<symbol id="icon-umbrella" viewBox="0 0 32 32">
<title>umbrella</title>
<path class="path1" d="M16 0c-8.82 0-16 7.178-16 16h4c0-0.826 0.676-1.5 1.5-1.5 0.828 0 1.5 0.674 1.5 1.5h4c0-0.826 0.676-1.5 1.5-1.5 0.828 0 1.5 0.674 1.5 1.5v10c0 1.102-0.895 2-2 2-1.102 0-2-0.898-2-2h-4c0 3.309 2.695 6 6 6 3.312 0 6-2.691 6-6v-10c0-0.826 0.676-1.5 1.5-1.5 0.828 0 1.498 0.674 1.498 1.5h4c0-0.826 0.68-1.5 1.5-1.5 0.828 0 1.5 0.674 1.5 1.5h4c0-8.822-7.172-16-15.998-16z"></path>
</symbol>
<symbol id="icon-star" viewBox="0 0 32 32">
<title>star</title>
<path class="path1" d="M22.137 19.625l9.863-7.625h-12l-4-12-4 12h-12l9.875 7.594-3.875 12.406 10.016-7.68 9.992 7.68z"></path>
</symbol>
<symbol id="icon-map-pin-stroke" viewBox="0 0 20 32">
<title>map-pin-stroke</title>
<path class="path1" d="M10 4c1.602 0 3.109 0.625 4.242 1.76 1.133 1.131 1.758 2.638 1.758 4.24s-0.625 3.109-1.73 4.213c-0.168 0.166-2.238 2.225-4.27 5.441-2.023-3.211-4.086-5.262-4.242-5.414-1.133-1.131-1.758-2.638-1.758-4.24s0.625-3.109 1.758-4.242 2.64-1.758 4.242-1.758zM10 0c-2.559 0-5.117 0.977-7.070 2.93-3.906 3.904-3.906 10.236 0 14.141 0-0.001 7.070 6.929 7.070 14.929 0-8 7.070-14.93 7.070-14.93 3.906-3.904 3.906-10.236 0-14.141-1.953-1.952-4.511-2.929-7.070-2.929v0zM8 10c0-1.105 0.895-2 2-2s2 0.895 2 2c0 1.105-0.895 2-2 2s-2-0.895-2-2z"></path>
</symbol>
<symbol id="icon-map-pin-fill" viewBox="0 0 20 32">
<title>map-pin-fill</title>
<path class="path1" d="M17.070 2.93c-3.906-3.906-10.234-3.906-14.141 0-3.906 3.904-3.906 10.238 0 14.14 0.001 0 7.071 6.93 7.071 14.93 0-8 7.070-14.93 7.070-14.93 3.907-3.902 3.907-10.236 0-14.14zM10 14c-2.211 0-4-1.789-4-4s1.789-4 4-4 4 1.789 4 4-1.789 4-4 4z"></path>
</symbol>
<symbol id="icon-map-pin-alt" viewBox="0 0 16 32">
<title>map-pin-alt</title>
<path class="path1" d="M8 0c-4.418 0-8 3.582-8 8s8 24 8 24 8-19.582 8-24-3.582-8-8-8zM8 12c-2.209 0-4-1.791-4-4s1.791-4 4-4 4 1.791 4 4-1.791 4-4 4z"></path>
</symbol>
<symbol id="icon-target" viewBox="0 0 32 32">
<title>target</title>
<path class="path1" d="M18.023 13.975h5.789c-0.734-2.836-2.953-5.057-5.789-5.789v5.789zM18.023 18.025v5.787c2.836-0.73 5.055-2.953 5.789-5.787h-5.789zM13.973 13.975v-5.789c-2.836 0.732-5.059 2.953-5.789 5.789h5.789zM13.973 18.025h-5.789c0.73 2.834 2.953 5.057 5.789 5.787v-5.787zM18.023 4.053c5.074 0.859 9.062 4.848 9.922 9.922h4.055c-0.926-7.311-6.664-13.051-13.977-13.975v4.053zM4.051 13.975c0.859-5.075 4.847-9.063 9.922-9.922v-4.053c-7.309 0.924-13.051 6.664-13.973 13.975h4.051zM13.973 27.945c-5.074-0.859-9.062-4.844-9.922-9.92h-4.051c0.922 7.311 6.664 13.053 13.973 13.975v-4.055zM27.945 18.025c-0.859 5.076-4.848 9.061-9.922 9.92v4.055c7.313-0.922 13.051-6.664 13.977-13.975h-4.055z"></path>
</symbol>
<symbol id="icon-download" viewBox="0 0 24 32">
<title>download</title>
<path class="path1" d="M0 28h24v4h-24zM16 18v-18h-8v18h-4l8 10 8-10z"></path>
</symbol>
<symbol id="icon-upload" viewBox="0 0 24 32">
<title>upload</title>
<path class="path1" d="M0 0h24v4h-24zM8 14v18h8v-18h4l-8-10-8 10z"></path>
</symbol>
<symbol id="icon-cloud-download" viewBox="0 0 32 32">
<title>cloud-download</title>
<path class="path1" d="M24 4c-0.375 0-0.738 0.059-1.102 0.113-1.394-2.468-3.972-4.113-6.898-4.113-2.988 0-5.568 1.668-6.941 4.098-0.352-0.047-0.702-0.098-1.059-0.098-4.412 0-8 3.59-8 8s3.588 8 8 8h6v6h-4l6 6 6-6h-4v-6h6c4.414 0 8-3.59 8-8s-3.586-8-8-8zM24 16h-16c-2.205 0-4-1.793-4-4 0-2.191 1.943-3.887 4.004-3.945 0.008 0.941 0.172 1.871 0.5 2.746l3.746-1.406c-0.166-0.442-0.25-0.915-0.25-1.395 0-2.207 1.795-4 4-4 1.295 0 2.463 0.641 3.203 1.637-1.933 1.461-3.203 3.758-3.203 6.363h4c0-2.207 1.797-4 4-4s4 1.793 4 4-1.797 4-4 4z"></path>
</symbol>
<symbol id="icon-cloud-upload" viewBox="0 0 32 32">
<title>cloud-upload</title>
<path class="path1" d="M24 4c-0.375 0-0.738 0.062-1.102 0.109-1.394-2.461-3.972-4.109-6.898-4.109-2.988 0-5.568 1.664-6.941 4.102-0.352-0.047-0.702-0.102-1.059-0.102-4.412 0-8 3.586-8 8s3.588 8 8 8h16c4.414 0 8-3.586 8-8s-3.586-8-8-8zM24 16h-16c-2.205 0-4-1.797-4-4 0-2.195 1.943-3.883 4.004-3.945 0.008 0.945 0.172 1.867 0.5 2.742l3.746-1.398c-0.166-0.446-0.25-0.915-0.25-1.399 0-2.203 1.795-4 4-4 1.295 0 2.463 0.641 3.203 1.641-1.933 1.461-3.203 3.754-3.203 6.359h4c0-2.203 1.797-4 4-4s4 1.797 4 4-1.797 4-4 4zM16 20l-6 6h4v6h4v-6h4z"></path>
</symbol>
<symbol id="icon-fork" viewBox="0 0 28 32">
<title>fork</title>
<path class="path1" d="M20 0v3.875c0 1.602-0.625 3.109-1.754 4.238l-11.316 11.254c-1.789 1.785-2.774 4.129-2.883 6.633h-4.047l6 6 6-6h-3.957c0.105-1.438 0.684-2.773 1.711-3.805l11.316-11.25c1.891-1.89 2.93-4.398 2.93-7.070v-3.875h-4zM23.953 26c-0.109-2.504-1.098-4.848-2.887-6.641l-2.23-2.215-2.836 2.821 2.242 2.23c1.031 1.027 1.609 2.367 1.715 3.805h-3.957l6 6 6-6h-4.047z"></path>
</symbol>
<symbol id="icon-paperclip" viewBox="0 0 32 32">
<title>paperclip</title>
<path class="path1" d="M17.293 15.292l-2.829-2.829-4 4c-1.953 1.953-1.953 5.119 0 7.071 1.953 1.953 5.118 1.953 7.071 0l10.122-9.879c3.123-3.124 3.123-8.188 0-11.313-3.125-3.124-8.19-3.124-11.313 0l-11.121 10.88c-4.296 4.295-4.296 11.26 0 15.557s11.261 4.296 15.556 0l6-6-2.829-2.829-5.999 6c-2.733 2.732-7.166 2.732-9.9 0s-2.733-7.166 0-9.899l11.121-10.881c1.562-1.562 4.095-1.562 5.656 0 1.563 1.563 1.563 4.097 0 5.657l-10.121 9.879c-0.391 0.391-1.023 0.391-1.414 0s-0.391-1.023 0-1.414l4-4z"></path>
</symbol>
</defs>
</svg>
